<?xml version="1.0" standalone="no"?>
<!DOCTYPE svg PUBLIC "-//W3C//DTD SVG 1.1//EN" "http://www.w3.org/Graphics/SVG/1.1/DTD/svg11.dtd" >
<svg xmlns="http://www.w3.org/2000/svg" xmlns:xlink="http://www.w3.org/1999/xlink" version="1.1">
<metadata></metadata>
<defs>
<font id="suez_oneregular" horiz-adv-x="1458" >
<font-face units-per-em="2048" ascent="1638" descent="-410" />
<missing-glyph horiz-adv-x="421" />
<glyph unicode="&#xfb01;" horiz-adv-x="1548" d="M51 188l144 43v600l-144 3v200l144 8v134q0 184 107.5 287.5t297.5 103.5q125 0 277 -27l-48 -278q-90 25 -156.5 34t-133.5 7v-242l837 14v-776q0 -43 6.5 -57.5t34.5 -30.5l101 -57l-7 -154h-614l-10 188l145 43v498q0 45 -9 60.5t-48 35.5l-436 2v-528q0 -43 6 -57.5 t35 -30.5l127 -70l-7 -141h-643zM975 1495l348 92l86 -311l-348 -94z" />
<glyph unicode="&#xfb02;" horiz-adv-x="1525" d="M51 188l144 43v600l-144 3v200l144 8v136q0 123 50 214t146 134q92 43 256 43q84 0 177.5 -9.5t244.5 -27.5q190 33 270 35q18 -49 27 -107v-1161q0 -43 7 -57.5t36 -30.5l100 -57l-8 -154h-614l-10 188l147 43v986q-55 10 -121 30q-123 31 -196 45q-94 16 -168 13v-244 l233 14v-252l-233 4v-528q0 -43 6 -57.5t35 -30.5l127 -70l-7 -141h-643z" />
<glyph horiz-adv-x="0" />
<glyph horiz-adv-x="682" />
<glyph unicode=" "  horiz-adv-x="421" />
<glyph unicode="&#x09;" horiz-adv-x="421" />
<glyph unicode="&#xa0;" horiz-adv-x="421" />
<glyph unicode="!" horiz-adv-x="675" d="M143 1397l271 33h96l-70 -986h-213zM154 219l307 80l76 -283l-306 -82z" />
<glyph unicode="&#x22;" horiz-adv-x="929" d="M102 1380h324v-120l-176 -502h-117zM524 1380h324v-120l-178 -502h-115z" />
<glyph unicode="#" horiz-adv-x="1273" d="M92 352l49 123h215l72 170h-211l57 123h207l86 201h193l-103 -201h148l86 201h188l-102 -201h205l-58 -123h-213l-84 -170h222l-52 -123h-229l-109 -200h-116l84 200h-174l-113 -200h-123l86 200h-211zM506 475h176l70 170h-158z" />
<glyph unicode="$" horiz-adv-x="1116" d="M113 20q12 227 24 314l123 22l133 -145q78 -20 162 -21q47 0 78 7q6 16 6 45t-12.5 48t-54.5 44.5t-138 75.5q-127 66 -194.5 115.5t-95 104t-27.5 130.5q0 154 98 249t274 117l-12 254h144l-13 -247q90 -2 182.5 -22.5t165.5 -51.5q0 -131 -16 -311l-113 -17l-145 158 q-53 14 -162 14q-18 0 -67 -4q-6 -8 -7 -43q0 -43 43 -80t175 -102q145 -72 214.5 -119t97.5 -96t28 -123q0 -156 -104.5 -251t-295.5 -116l17 -288h-144l17 282q-176 0 -381 57z" />
<glyph unicode="%" horiz-adv-x="1304" d="M113 -76v215l1079 1016v-217zM129 881q0 106 76 173.5t190 67.5q113 0 173.5 -64.5t60.5 -183.5q0 -104 -76 -172.5t-193 -68.5q-112 0 -171.5 63.5t-59.5 184.5zM309 895q0 -127 78 -127q31 0 49 8q12 37 13 92q0 117 -80 117q-23 0 -52 -6q-8 -29 -8 -84zM676 205 q0 104 76.5 170.5t193.5 66.5q113 0 172.5 -62.5t59.5 -180.5q0 -106 -76 -175t-191 -69q-114 0 -174.5 64.5t-60.5 185.5zM858 211q0 -117 80 -117q20 0 51 6q6 18 6 84q0 125 -75 125q-33 0 -52 -8q-10 -37 -10 -90z" />
<glyph unicode="&#x26;" horiz-adv-x="1632" d="M49 350q0 115 61.5 214.5t176.5 168.5q-63 150 -64 279q0 184 126 292.5t341 108.5q188 0 296 -85t108 -234q0 -139 -96.5 -238.5t-282.5 -150.5q70 -94 168 -191q55 -55 157 -133l17 35q31 61 30 98q0 35 -34 64l-58 55v90q168 59 363 59q2 -14 2 -63q0 -129 -38 -231.5 t-126 -211.5q47 -29 88 -45q29 0 116 26t161 52l-13 -280q-98 -53 -233 -54q-129 0 -260 50q-53 20 -103 43q-188 -100 -403 -101q-147 0 -261 47t-176.5 134.5t-62.5 201.5zM371 428q0 -111 82 -171t202 -60q41 0 74 6q-111 80 -199 172q-76 80 -135 166q-25 -55 -24 -113z M551 1122q0 -115 65 -250q84 35 122 80t38 107q0 129 -155 129q-45 0 -62 -4q-8 -23 -8 -62z" />
<glyph unicode="'" horiz-adv-x="497" d="M92 1380h324v-120l-176 -502h-117z" />
<glyph unicode="(" horiz-adv-x="663" d="M72 618q0 248 88 451t206.5 337t225.5 204v-201q-104 -145 -177 -346t-73 -445q0 -246 73.5 -456.5t176.5 -364.5v-215q-107 78 -225.5 222.5t-206.5 355.5t-88 458z" />
<glyph unicode=")" horiz-adv-x="663" d="M72 -203q102 154 176 365t74 456q0 244 -73 445t-177 346v201q106 -70 225 -204t207 -337t88 -451t-88 -458.5t-207 -355t-225 -222.5v215z" />
<glyph unicode="*" horiz-adv-x="954" d="M133 1057l135 117l-135 116l70 125l172 -59l31 176h143l33 -176l168 59l71 -123l-133 -116l133 -117l-69 -123l-170 57l-33 -174h-143l-31 174l-170 -57z" />
<glyph unicode="+" horiz-adv-x="1255" d="M164 430v227h346v353h235v-353h347v-227h-347v-350h-235v350h-346z" />
<glyph unicode="," horiz-adv-x="561" d="M82 94q88 154 217 244q61 -45 113 -105q70 -76 69 -155q0 -39 -11 -73t-40 -105q-51 -111 -133 -252h-158q60 143 76 189t16 71q0 23 -9 40t-32 38z" />
<glyph unicode="-" horiz-adv-x="966" d="M180 492v202l500 68h106v-270h-606z" />
<glyph unicode="." horiz-adv-x="620" d="M113 240l331 88l84 -305l-329 -89z" />
<glyph unicode="/" horiz-adv-x="628" d="M6 -125l479 1669h138l-478 -1669h-139z" />
<glyph unicode="0" horiz-adv-x="1341" d="M74 547q0 166 82 298t228 205.5t331 73.5q272 0 412.5 -149.5t140.5 -442.5q0 -166 -82 -296t-228.5 -203.5t-332.5 -73.5q-273 0 -412 149.5t-139 438.5zM446 580q0 -176 64.5 -271.5t183.5 -95.5q86 0 164 31q16 45 26.5 119.5t10.5 152.5q0 170 -63.5 258t-186.5 88 q-63 0 -166 -18q-33 -51 -33 -264z" />
<glyph unicode="1" horiz-adv-x="802" d="M41 209l221 41v461q0 41 -7 52t-46 34l-168 92l18 135l381 111l168 -15v-805q0 -47 5 -59t34 -27l146 -73l-7 -156h-735z" />
<glyph unicode="2" horiz-adv-x="886" d="M39 240q33 29 100.5 81t110.5 85q193 147 242 190q10 45 10 86q0 72 -40 104.5t-126 32.5q-109 0 -254 -20l-10 80l24 206q154 39 312 39q186 0 295.5 -81.5t109.5 -225.5q0 -147 -75.5 -260t-250.5 -250l-86 -63l342 78h84l-22 -322h-760z" />
<glyph unicode="3" horiz-adv-x="968" d="M-35 -240l119 287h90q115 -55 275 -55q133 0 180 45q2 111 -49.5 167t-159.5 66l-137 13q-74 4 -111 8q16 152 43 244q139 16 184 24t76 23q16 61 19 116q-2 68 -42 94.5t-141 26.5q-119 0 -254 -31l2 95l41 196q147 45 312 45q184 0 297.5 -76.5t113.5 -205.5 q0 -72 -32.5 -143.5t-100.5 -153.5q115 -33 168 -105.5t53 -195.5q0 -158 -83 -287t-227 -202.5t-318 -73.5q-90 0 -173 21.5t-145 57.5z" />
<glyph unicode="4" horiz-adv-x="1218" d="M31 289l551 846l374 -41l17 -713h194v-80l-51 -229h-137l8 -328l-248 -37h-98v365h-557zM365 381h276v436z" />
<glyph unicode="5" horiz-adv-x="1028" d="M57 -238l109 279h82q109 -57 276 -57q121 0 172 47q2 109 -46 166t-148 67q49 -4 -238 17l-114 6l-46 530q-2 59 10.5 135t32.5 150h455q47 0 61.5 5t38.5 34l39 49l160 -43q-14 -168 -43 -371h-487v-172l59 -4q139 -8 232.5 -23.5t158.5 -56.5q147 -88 148 -284 q0 -156 -79 -283t-216 -199.5t-307 -72.5q-193 -1 -310 81z" />
<glyph unicode="6" horiz-adv-x="1155" d="M78 444q0 125 31.5 231.5t119.5 268.5q37 72 94.5 155t206.5 283l353 25l18 -82l-401 -461l182 41q182 -23 289.5 -134.5t107.5 -274.5q0 -150 -67.5 -273t-185 -193.5t-261.5 -70.5q-147 0 -257.5 59.5t-170 170t-59.5 255.5zM408 565q0 -162 56 -248t159 -86 q71 1 120 15q2 16 2 67q0 172 -54 254t-169 82q-63 0 -112 -8q-2 -20 -2 -76z" />
<glyph unicode="7" horiz-adv-x="1021" d="M57 647l45 455h869l26 -199l-493 -1196h-381v90l573 996l-348 -9l-155 -153z" />
<glyph unicode="8" horiz-adv-x="1210" d="M74 344q0 119 52 210t150 151q-80 61 -111.5 128.5t-31.5 167.5q0 119 60.5 211.5t171 143.5t253.5 51q215 0 335 -97.5t120 -273.5q0 -96 -33.5 -178t-97.5 -135q102 -59 147.5 -139t45.5 -199q0 -127 -68 -223t-190.5 -149.5t-286.5 -53.5q-252 0 -382 98.5t-134 286.5 zM412 387q0 -193 233 -192q35 0 103 10q39 68 38 139q-2 47 -32.5 81t-85 61.5t-164.5 74.5l-37 17q-25 -39 -40 -91.5t-15 -99.5zM463 1053q0 -45 18.5 -76t68.5 -61.5t157 -79.5q45 96 45 174q0 82 -49.5 121.5t-151.5 39.5q-16 0 -62 -4q-10 -16 -18 -53t-8 -61z" />
<glyph unicode="9" horiz-adv-x="1155" d="M78 592q0 150 67.5 271.5t184 191t260.5 69.5q147 0 257.5 -59t171 -168t60.5 -254q0 -125 -32.5 -232.5t-118.5 -267.5q-39 -74 -100.5 -165t-198.5 -275l-355 -22l-18 77l401 465l-182 -41q-180 23 -288.5 133.5t-108.5 276.5zM412 772q0 -172 54 -253t169 -81 q63 0 110 8q2 20 3 74q0 160 -55.5 248t-155.5 88q-72 0 -123 -12q-2 -18 -2 -72z" />
<glyph unicode=":" horiz-adv-x="704" d="M154 934l317 82l82 -289l-315 -84zM158 227l317 82l82 -289l-315 -83z" />
<glyph unicode=";" horiz-adv-x="567" d="M82 94q88 154 217 244q61 -45 113 -105q70 -76 69 -155q0 -39 -11 -73t-40 -105q-51 -111 -133 -252h-158q60 143 76 189t16 71q0 23 -9 40t-32 38zM86 934l317 82l82 -289l-315 -84z" />
<glyph unicode="&#x3c;" horiz-adv-x="1370" d="M205 473v141l960 424v-276l-671 -219l671 -217v-281z" />
<glyph unicode="=" horiz-adv-x="1251" d="M164 225v226h923v-226h-923zM164 639v229h923v-229h-923z" />
<glyph unicode="&#x3e;" horiz-adv-x="1370" d="M205 45v281l672 217l-672 219v276l960 -424v-141z" />
<glyph unicode="?" horiz-adv-x="772" d="M31 1110l4 61q78 152 166 267q248 -41 374.5 -109.5t126.5 -200.5q0 -76 -37.5 -136t-109.5 -136l-37 -41q-37 -41 -53 -68.5t-16 -54.5t15 -56.5t56 -88.5q-113 -82 -258 -158q-59 115 -59 197q0 94 88 209l74 94q2 70 -23 105.5t-74 53t-164 44.5zM162 219l305 80 l76 -283l-303 -82z" />
<glyph unicode="@" horiz-adv-x="1796" d="M133 430q0 231 112.5 429t312.5 315.5t446 117.5q178 0 327.5 -65.5t240.5 -201.5t91 -339q0 -156 -53.5 -271.5t-146.5 -177t-206 -61.5q-147 0 -262 82q-86 -72 -198 -72q-115 0 -169.5 73t-54.5 204q0 195 110 313.5t318 118.5q117 0 232 -41l-86 -489q59 -31 127 -31 q102 0 149 88t47 223q0 250 -135 373t-348 123q-186 0 -329.5 -92.5t-222.5 -247t-79 -336.5q0 -246 147.5 -379t428.5 -135l-21 -154q-213 0 -388 62.5t-282.5 205t-107.5 365.5zM786 467q0 -111 76 -111q35 0 92 29l58 338q-43 14 -92 14q-37 0 -86 -12q-16 -43 -32 -125 t-16 -133z" />
<glyph unicode="A" d="M33 182l63 39l479 1161l349 31l409 -1106q20 -53 28.5 -69.5t31.5 -44.5l37 -48l-13 -145h-575l-21 195l146 36l-66 207l-416 -6l-45 -129q-6 -18 -6 -31q0 -14 5 -21t18 -11l141 -60l-20 -180h-537zM567 670l264 -13l-129 406z" />
<glyph unicode="B" horiz-adv-x="1327" d="M68 1192l12 170q332 43 569 43q291 0 426 -86t135 -272q0 -92 -28.5 -163t-87.5 -128q204 -92 204 -297q0 -186 -102 -299t-301 -148q-74 -20 -367 -20q-221 0 -442 16l-10 201l149 41v780q0 53 -8 70.5t-43 32.5zM582 260q72 -14 161 -14q117 0 166 20q20 82 21 146 q0 102 -53.5 145t-180.5 43q-27 0 -67 -4l-47 -2v-334zM582 825q35 2 90 2q84 0 157 -6q21 53 21 178q0 86 -40 127t-122 45q-53 0 -106 -4v-342z" />
<glyph unicode="C" horiz-adv-x="1316" d="M51 698q0 221 81 382t234.5 246t364.5 85q240 0 494 -108q-18 -184 -60 -408l-155 -10l-142 207q-87 26 -190 26h-8q-82 0 -156 -14q-33 -63 -53.5 -168t-20.5 -211q0 -227 83 -336.5t263 -114.5q72 0 181.5 21.5t214.5 56.5l63 -225q-106 -70 -256.5 -114t-290.5 -44 q-311 0 -479 190.5t-168 538.5z" />
<glyph unicode="D" horiz-adv-x="1505" d="M68 1192l12 170q213 16 358.5 25.5t233.5 9.5q283 0 453.5 -65.5t249.5 -207t79 -374.5q0 -295 -135 -478q-121 -158 -320.5 -218t-504.5 -60q-222 0 -408 18l-10 197l149 41v780q0 53 -8 70.5t-43 32.5zM596 297q82 -10 156 -10q172 0 272 41q18 51 33.5 159.5 t15.5 202.5q0 231 -95 342t-290 111q-27 0 -49.5 -2t-42.5 -4v-840z" />
<glyph unicode="E" horiz-adv-x="1275" d="M51 1196l6 184h1112q14 -215 15 -419l-152 -11l-145 180l-309 9v-334l436 37v-316l-436 47v-329l340 6l157 180l152 -10q-8 -215 -31 -420h-1130l-11 209l150 41v784q0 53 -8.5 70.5t-42.5 32.5z" />
<glyph unicode="F" horiz-adv-x="1245" d="M51 1196l6 184h1112q14 -215 15 -419l-152 -11l-145 180l-309 9v-365l436 39v-315l-436 47v-213q0 -49 7 -63.5t38 -28.5l122 -74l-6 -166h-673l-11 209l150 41v784q0 53 -8.5 70.5t-42.5 32.5z" />
<glyph unicode="G" horiz-adv-x="1384" d="M51 698q0 219 84 378t244 243t379 84q266 0 518 -107q-20 -197 -57 -393l-156 -10l-129 188q-102 37 -254 37q-72 0 -172 -14q-37 -61 -57.5 -163.5t-20.5 -221.5q0 -236 94 -351.5t293 -117.5q49 0 125 8v150q0 41 -6 53t-35 28l-78 39l8 140l48 8q23 4 160 25.5 t229 25.5q20 -39 30 -88v-537q-119 -59 -264 -93t-289 -34q-346 0 -520 182.5t-174 540.5z" />
<glyph unicode="H" horiz-adv-x="1566" d="M51 1186l6 194h639l11 -209l-152 -41v-299l467 13v190q0 53 -8 70.5t-43 32.5l-101 57l11 186h628l9 -215l-125 -35v-798q0 -49 7 -63.5t36 -28.5l84 -50l-9 -190h-622l-10 211l143 39v305l-467 20v-243q0 -49 7 -63.5t38 -28.5l109 -64l-9 -176h-634l-11 215l129 35v784 q0 53 -7 70.5t-40 32.5z" />
<glyph unicode="I" horiz-adv-x="794" d="M57 1198l11 182h657l8 -209l-147 -41v-798q0 -49 7 -63.5t38 -28.5l104 -64l-6 -176h-653l-10 209l149 41v784q0 53 -8 70.5t-43 32.5z" />
<glyph unicode="J" horiz-adv-x="774" d="M41 -14l166 200v848q0 53 -8.5 70.5t-42.5 32.5l-105 61l8 182h658l10 -209l-149 -41v-655q0 -217 -35 -355t-125 -278l-64 -90q-116 64 -175.5 107t-137.5 127z" />
<glyph unicode="K" horiz-adv-x="1439" d="M51 1186l6 194h639l11 -209l-152 -41v-385l358 388q8 8 9 22q0 10 -7 19l-59 71l23 135h475l24 -139l-469 -502l502 -647v-92h-391l-465 616v-284q0 -45 7 -61.5t38 -32.5l109 -62l-9 -176h-634l-11 215l129 35v784q0 53 -7 70.5t-40 32.5z" />
<glyph unicode="L" horiz-adv-x="1196" d="M51 1186l6 194h639l11 -209l-152 -41v-884l258 6l174 199l158 -9q-4 -172 -29 -442h-1050l-11 215l129 35v784q0 53 -7 70.5t-40 32.5z" />
<glyph unicode="M" horiz-adv-x="1949" d="M27 182l94 58l117 790q2 14 2 35q0 25 -11.5 37t-42.5 31l-94 53l12 194h588l293 -954l291 954h549l8 -215l-131 -32l110 -803q6 -41 17.5 -63.5t52.5 -73.5l43 -56l-12 -137h-610l-19 188l168 43l-70 687l-262 -926l-350 -31l-303 944l-45 -606v-8q0 -39 29 -51l127 -54 l-21 -186h-510z" />
<glyph unicode="N" horiz-adv-x="1531" d="M57 223l111 27l8 807q0 39 -6 53t-29 33l-75 57l14 180h424l618 -792l-28 456q-2 49 -10.5 63.5t-36.5 31.5l-107 69l6 172h529l8 -209l-105 -45l-8 -1108l-235 -77l-715 931l35 -536q2 -47 10 -61.5t37 -30.5l106 -72l-8 -172h-532z" />
<glyph unicode="O" horiz-adv-x="1478" d="M51 666q0 227 84 394t239.5 257t370.5 90q684 0 685 -698q0 -229 -84 -395.5t-243 -254.5t-378 -88q-340 0 -507 172t-167 523zM432 745q0 -238 86 -364.5t250 -126.5q117 0 223 59q23 63 35 158.5t12 187.5q0 227 -85 344t-248 117q-117 0 -226 -43q-23 -39 -35 -128 t-12 -204z" />
<glyph unicode="P" horiz-adv-x="1325" d="M68 1192l12 166q156 25 295 36t299 11q221 0 355 -47t196.5 -147.5t62.5 -266.5q0 -215 -154.5 -338t-422.5 -123l-113 4v-155q0 -49 7 -63.5t36 -28.5l125 -74l-8 -166h-672l-10 209l149 41v780q0 53 -8 70.5t-43 32.5zM598 723q55 -12 131 -12h9q104 0 153 22 q22 96 22 202v9q0 121 -46 172t-148 51q-35 0 -121 -8v-436z" />
<glyph unicode="Q" horiz-adv-x="1515" d="M51 666q0 227 84 394t239.5 257t370.5 90q684 0 685 -698q0 -324 -160 -514l227 10v-279h-133l-502 56q-72 -10 -137 -11q-340 0 -507 172t-167 523zM434 745q0 -238 85 -364.5t249 -126.5q61 0 113.5 14.5t109.5 44.5q23 63 35 158.5t12 187.5q0 227 -85 344t-248 117 q-115 0 -226 -43q-23 -39 -34 -127t-11 -205z" />
<glyph unicode="R" horiz-adv-x="1380" d="M68 1192l12 168q307 45 592 45q221 0 356 -44t197.5 -137.5t62.5 -246.5q0 -127 -65.5 -222.5t-186.5 -146.5l328 -528l-2 -80h-373l-303 547l-90 2v-230q0 -49 7 -62t36 -30l88 -51l-8 -176h-633l-10 209l149 41v780q0 53 -8 70.5t-43 32.5zM600 791q53 -12 127 -13 q109 1 160 21q20 74 20 176t-44 145t-146 43q-57 0 -117 -6v-366z" />
<glyph unicode="S" horiz-adv-x="1169" d="M57 45q10 203 33 377l158 31l102 -174q123 -43 217 -43q33 0 140 18q4 41 4 55q0 49 -16.5 75t-72 57.5t-198.5 95.5q-176 86 -254 185t-78 234q0 211 143.5 330t393.5 119q121 0 240.5 -23.5t209.5 -64.5q-4 -115 -18 -285l-6 -88l-150 -22l-155 198q-74 23 -185 23 q-70 0 -104 -13q-10 -41 -10 -63q0 -45 22.5 -79t79.5 -69.5t170 -89.5q164 -78 248 -137t117.5 -123.5t33.5 -156.5q0 -203 -161.5 -320t-446.5 -117q-226 0 -457 70z" />
<glyph unicode="T" horiz-adv-x="1431" d="M57 952q0 170 17 428h1282q16 -258 16 -428l-147 -12l-154 182l-168 15v-805q0 -49 6 -63.5t35 -28.5l127 -76l-8 -164h-701l-10 201l178 49v887l-172 -15l-151 -182z" />
<glyph unicode="U" horiz-adv-x="1542" d="M51 1176l6 204h639l11 -202l-170 -48v-419q0 -213 61 -336t211 -123q49 0 95 14.5t79 38.5q20 47 28.5 126t8.5 212v391q0 53 -8 70.5t-43 32.5l-101 57l11 186h608l10 -221l-106 -29v-462q0 -330 -169 -512.5t-477 -182.5q-301 0 -441 159t-140 499v403q0 53 -7 70.5 t-40 32.5z" />
<glyph unicode="V" horiz-adv-x="1480" d="M51 1237l8 143h590l21 -194l-146 -37l273 -776l243 706q6 16 7 29q0 27 -25 35l-141 57l14 180h535l12 -174l-90 -114l-447 -1098l-352 -31l-434 1178z" />
<glyph unicode="W" horiz-adv-x="2236" d="M51 1237l8 143h588l12 -194l-147 -39l254 -793l203 631l-90 264l8 131h545l12 -194l-135 -39l252 -793l235 725q6 16 6 29q0 27 -26 35l-140 57l13 180h536l10 -174l-84 -114l-430 -1100l-358 -35l-215 627l-221 -592l-379 -35l-387 1184z" />
<glyph unicode="X" horiz-adv-x="1433" d="M41 182l49 47l387 461l-330 445l-102 122l6 123h635l23 -184l-109 -27l199 -266l145 211q6 10 6 19q0 16 -20 34l-74 56l14 157h498l12 -176l-51 -47l-381 -455l342 -456l103 -123l-9 -123h-643l-12 184l107 27l-209 281l-152 -218q-8 -10 -8 -22q0 -14 22 -33l72 -57 l-14 -156h-496z" />
<glyph unicode="Y" horiz-adv-x="1378" d="M35 1237l8 143h600l21 -194l-134 -37l215 -365l179 301q8 14 8 29q0 23 -25 33l-119 53l15 180h516l14 -192l-82 -49l-377 -553v-254q0 -49 7.5 -63.5t36.5 -28.5l126 -76l-8 -164h-698l-10 201l176 49v270l-375 600z" />
<glyph unicode="Z" horiz-adv-x="1280" d="M57 254l641 854l-288 -21l-162 -176l-162 31l55 438h1028l21 -233l-660 -875l396 25l143 182l172 -39q-35 -303 -55 -440h-1114z" />
<glyph unicode="[" horiz-adv-x="655" d="M143 -432v2048h430v-186h-180v-1676h180v-186h-430z" />
<glyph unicode="\" horiz-adv-x="628" d="M6 1544h137l480 -1669h-140z" />
<glyph unicode="]" horiz-adv-x="653" d="M80 -246h180v1676h-180v186h430v-2048h-430v186z" />
<glyph unicode="^" horiz-adv-x="1261" d="M113 563l407 817h240l389 -817h-279l-231 598l-254 -598h-272z" />
<glyph unicode="_" horiz-adv-x="1003" d="M0 -135h1004v-193h-1004v193z" />
<glyph unicode="`" horiz-adv-x="1167" d="M254 1464v84h369l194 -354h-176z" />
<glyph unicode="a" horiz-adv-x="1134" d="M41 248q0 162 163 254t474 104q0 96 -15.5 142.5t-55.5 63.5t-122 17q-84 0 -118 -6l-84 -166l-152 11q-35 164 -49 340q115 39 251 61.5t255 22.5q217 0 311 -85t94 -282v-428q0 -37 7.5 -51.5t31.5 -28.5l82 -47l-8 -127q-238 -55 -375 -61q-4 12 -12 43.5t-14 60.5 q-80 -51 -175.5 -82t-181.5 -31q-139 0 -223 77t-84 198zM358 334q0 -61 34 -95t93 -34q82 0 199 55l-8 156q-49 4 -66 4q-55 0 -128.5 -11.5t-116.5 -25.5q-6 -27 -7 -49z" />
<glyph unicode="b" horiz-adv-x="1157" d="M-51 1348l10 155q190 33 288.5 47.5t153.5 16.5q20 -43 29 -107v-409q117 41 232 41q215 0 336.5 -136.5t121.5 -390.5q0 -281 -154.5 -435.5t-447.5 -154.5q-112 0 -225 24t-209 62v1151q0 45 -6 58.5t-33 29.5zM430 266q51 -26 152 -26h8q96 0 143 20q16 55 26.5 129 t10.5 143q0 315 -211 316q-53 0 -129 -19v-563z" />
<glyph unicode="c" horiz-adv-x="1032" d="M31 524q0 268 140 418t384 150q184 0 395 -84q-4 -59 -18 -156.5t-31 -179.5l-137 -13l-127 162q-51 10 -115 10q-51 0 -94 -6q-47 -90 -47 -254q0 -168 59.5 -248.5t180.5 -80.5q57 0 139 17t168 50l49 -205q-82 -57 -204 -94t-243 -37q-237 0 -368 146.5t-131 404.5z " />
<glyph unicode="d" horiz-adv-x="1206" d="M31 516q0 285 150.5 430.5t428.5 145.5q16 0 107 -5v123q0 45 -6 59.5t-35 30.5l-92 48l10 155q197 35 291 48.5t149 15.5q18 -47 27 -107v-1165q0 -37 7 -51.5t34 -28.5l78 -47l-9 -127q-201 -51 -393 -61q-14 39 -28 94q-139 -100 -301 -101q-197 0 -307.5 147.5 t-110.5 395.5zM377 561q0 -168 46 -246.5t144 -78.5q68 0 152 45v530q-61 27 -158 27q-78 0 -149 -21q-16 -39 -25.5 -106.5t-9.5 -149.5z" />
<glyph unicode="e" horiz-adv-x="1067" d="M31 522q0 178 63.5 306t180 196t272.5 68q231 0 355 -148q118 -141 118 -395v-25l-623 -114q29 -86 81 -126t138 -40q59 0 141.5 17.5t166.5 47.5l47 -203q-76 -57 -197 -94t-244 -37q-239 0 -369 145.5t-130 401.5zM377 612l307 84q-4 78 -44 114t-112 36 q-59 0 -112 -17q-39 -91 -39 -197v-20z" />
<glyph unicode="f" horiz-adv-x="829" d="M51 188l144 43v600l-144 3v200l144 8v134q0 186 108.5 288.5t314.5 102.5q106 0 259 -27l-48 -278q-90 25 -157 34q-54 7 -109 7h-24v-242l233 14v-252l-233 4v-528q0 -43 6 -57.5t35 -30.5l127 -70l-7 -141h-643z" />
<glyph unicode="g" horiz-adv-x="1171" d="M0 -176q0 152 139 266q-43 43 -43 94q0 74 97 209q-168 88 -168 303q0 188 128 292t369 104q170 0 279 -52l246 76h96v-297h-160q10 -51 10 -100q0 -188 -127 -286.5t-372 -98.5q-84 0 -152 12v-29q0 -33 27.5 -46t119.5 -25l185 -27q217 -31 300 -106.5t83 -194.5 q0 -184 -151.5 -284.5t-430.5 -100.5q-235 0 -355 74t-120 217zM305 -90q0 -74 65.5 -110t198.5 -36q95 1 144 17q12 25 12 65q0 49 -35 75t-125 38l-65 10q-90 10 -183 29q-12 -55 -12 -88zM367 719q0 -94 38.5 -139t118.5 -45q44 0 99 12q8 25 15 74t7 90q0 92 -40 137 t-124 45q-41 0 -90 -12q-10 -25 -17 -72t-7 -90z" />
<glyph unicode="h" horiz-adv-x="1351" d="M51 1348l6 155l64 10q270 49 379 54q18 -49 26 -107v-467q113 51 192 75t156 24q319 0 320 -390v-403q0 -43 6 -57.5t35 -30.5l98 -57l-8 -154h-565l-10 195l100 28v389q0 90 -5 128t-34 58.5t-96 20.5q-66 0 -189 -22v-498q0 -43 6.5 -57.5t32.5 -30.5l101 -57l-9 -154 h-594l-10 195l127 36v981q0 45 -6 58.5t-33 29.5z" />
<glyph unicode="i" horiz-adv-x="710" d="M51 188l144 43v498q0 45 -7.5 58.5t-35.5 29.5l-91 49l11 154q170 33 263 48t171 17q27 -88 33 -131v-655q0 -43 6 -57.5t35 -30.5l100 -57l-8 -154h-615zM137 1516l348 92l84 -312l-346 -94z" />
<glyph unicode="j" horiz-adv-x="585" d="M-31 -238l164 191v776q0 45 -6 58.5t-35 29.5l-92 49l10 154q29 4 41 8q23 4 161 28.5t230 28.5q20 -68 35 -131v-723q0 -209 -30.5 -348t-116.5 -264l-58 -84q-104 55 -159.5 97t-143.5 130zM74 1516l348 92l86 -312l-350 -94z" />
<glyph unicode="k" horiz-adv-x="1267" d="M51 1348l6 155l64 10q270 49 379 54q18 -49 26 -107v-833l228 221q10 10 10 22q0 10 -6 17l-58 71l23 113h455q18 -68 24 -145l-340 -291l395 -545v-90h-360l-371 532v-233q0 -43 6.5 -57.5t32.5 -30.5l101 -57l-9 -154h-594l-10 195l127 36v981q0 45 -6 58.5t-33 29.5z " />
<glyph unicode="l" horiz-adv-x="700" d="M51 188l144 43v981q0 45 -7.5 58.5t-35.5 29.5l-91 48l11 155q41 8 63 10q270 49 377 54q20 -47 27 -107v-1161q0 -43 6 -57.5t35 -30.5l100 -57l-8 -154h-615z" />
<glyph unicode="m" horiz-adv-x="1974" d="M51 866l6 154l56 10q252 51 372 55q16 -43 27 -88q111 51 189.5 73t144.5 22q80 0 149.5 -30t104.5 -79q117 57 210 83t177 26q168 0 248 -96.5t80 -293.5v-403q0 -43 6 -57.5t34 -30.5l99 -57l-8 -154h-557l-11 195l99 28v387q0 88 -5.5 126t-34 59.5t-96.5 21.5 q-53 0 -178 -18q4 -33 4 -97v-403q0 -43 6.5 -57.5t36.5 -30.5l101 -57l-8 -154h-562l-10 195l98 28v387q0 90 -5 128t-33.5 58.5t-94.5 20.5q-72 0 -174 -18v-500q0 -43 6.5 -57.5t32.5 -30.5l101 -57l-9 -154h-590l-10 195l127 36v498q0 45 -6 58.5t-33 29.5z" />
<glyph unicode="n" horiz-adv-x="1351" d="M51 866l6 154l45 8q268 53 387 57q16 -43 27 -94q125 57 204 79t148 22q326 0 326 -390v-401q0 -43 6 -57.5t35 -30.5l98 -57l-8 -154h-565l-10 195l100 28v387q0 92 -6 129t-34 57.5t-97 20.5q-74 0 -187 -22v-496q0 -43 6.5 -57.5t32.5 -30.5l101 -57l-9 -154h-594 l-10 195l127 36v496q0 45 -6 58.5t-33 29.5z" />
<glyph unicode="o" horiz-adv-x="1132" d="M31 514q0 176 64.5 307t185 201t284.5 70q530 0 531 -549q0 -268 -144.5 -419t-404.5 -151t-388 133.5t-128 407.5zM371 569q0 -172 54 -264t155 -92q41 0 71.5 7t65.5 24q12 47 20 120.5t8 141.5q0 166 -52 252t-154 86q-68 0 -138 -19q-14 -31 -22 -99.5t-8 -156.5z " />
<glyph unicode="p" horiz-adv-x="1193" d="M-10 866l10 154q10 2 20.5 4t22.5 4q96 18 203.5 35.5t177.5 21.5q18 -43 25 -98q63 51 135.5 78t144.5 27q205 0 314.5 -144.5t109.5 -410.5q0 -276 -151.5 -423t-438.5 -147q-31 0 -96 4v-112q0 -45 6 -59.5t35 -28.5l121 -68l-8 -143h-615l-10 194l127 35v940 q0 45 -6 58.5t-35 29.5zM467 246q59 -25 149 -25q97 0 156 27q16 51 27.5 123.5t11.5 136.5q0 158 -54.5 244t-150.5 86q-59 0 -139 -35v-557z" />
<glyph unicode="q" horiz-adv-x="1177" d="M31 522q0 276 151.5 423t438.5 147q121 0 239.5 -25t204.5 -63v-1145q0 -45 6 -59.5t37 -28.5l63 -37l-8 -174h-614l-6 182l178 47v217q-119 -33 -215 -33q-240 0 -357.5 141.5t-117.5 407.5zM377 559q0 -162 49 -247t139 -85q35 0 69 9.5t85 31.5v533q-66 30 -162 30h-6 q-82 0 -137 -20q-16 -37 -26.5 -104.5t-10.5 -147.5z" />
<glyph unicode="r" horiz-adv-x="872" d="M51 866l6 154q35 8 60 10q248 51 366 55q18 -53 35 -133q123 96 209 133h117q-2 -78 -10.5 -169t-20.5 -146q-74 4 -108 4q-86 0 -179 -10v-465q0 -43 6.5 -57.5t32.5 -30.5l123 -66l-8 -145h-614l-11 195l125 36v498q0 45 -6 58.5t-33 29.5z" />
<glyph unicode="s" horiz-adv-x="944" d="M57 23q12 201 27 296l117 23l129 -137q68 -20 151 -21q47 0 74 6q6 16 6 46q0 25 -11 41t-50 38.5t-135 69.5q-121 63 -184.5 113.5t-91.5 103.5t-28 127q0 164 122 260t331 96q86 0 181.5 -19t170.5 -52q0 -133 -18 -297l-107 -17l-137 148q-53 16 -155 16q-16 0 -66 -4 q-6 -12 -6 -39q0 -29 16.5 -50t58.5 -47t134 -73q135 -66 203.5 -114t96 -97t27.5 -118q0 -168 -128 -262.5t-353 -94.5q-162 1 -375 58z" />
<glyph unicode="t" horiz-adv-x="851" d="M-41 831v150l369 336l118 -14v-232h345v-242h-345v-421q0 -98 28 -131t108 -33q68 0 188 18l25 -209q-74 -35 -165 -57.5t-175 -22.5q-181 0 -267 89.5t-86 271.5v497h-143z" />
<glyph unicode="u" horiz-adv-x="1253" d="M-37 866l10 154q29 4 41 8q23 4 161 28.5t231 28.5q23 -51 34 -118v-516q0 -90 5.5 -127t33 -56.5t94.5 -19.5q98 0 191 35v446q0 45 -6 58.5t-33 29.5l-90 49l8 154q166 31 259 47t171 18q23 -51 35 -118v-672q0 -37 6 -51.5t29 -28.5l82 -47l-6 -127q-88 -23 -203 -40 t-213 -21q-8 25 -19 61q-2 16 -10 39h-6q-84 -49 -177 -79t-169 -30q-164 0 -244 97.5t-80 293.5v367q0 45 -7 58.5t-36 29.5z" />
<glyph unicode="v" horiz-adv-x="1091" d="M-68 952l11 119h516l20 -174l-119 -29l187 -528l180 485q4 12 4 19q0 18 -18 24l-97 41l19 162h389l20 -166l-405 -909l-295 -23l-315 818q-23 55 -31 71.5t-31 44.5z" />
<glyph unicode="w" horiz-adv-x="1662" d="M-55 952l10 119h518l21 -174l-113 -27l139 -497l203 682l211 28l233 -729l131 471q4 12 5 19q0 18 -19 24l-98 41l20 162h389l21 -160l-352 -921l-295 -23l-170 570l-187 -547l-295 -23l-276 824q-23 55 -31 71.5t-30 44.5z" />
<glyph unicode="x" horiz-adv-x="1187" d="M51 154l338 389l-270 352q-20 27 -36.5 42t-23.5 19l11 115h548l11 -158l-82 -18l141 -182l100 143q8 10 9 23q0 14 -13 20l-69 35l10 137h401l11 -156l-316 -376l275 -357q45 -57 61 -73l-10 -109h-565l-11 150l101 24l-150 195l-114 -154q-8 -10 -9 -22q0 -14 13 -21 l69 -35l-10 -137h-414z" />
<glyph unicode="y" horiz-adv-x="1099" d="M-61 952l10 119h524l21 -174l-119 -29l168 -514l188 471q4 12 4 19q0 18 -16 24l-96 41l18 162h389l19 -166l-263 -571q-141 -309 -233 -485.5t-186 -317.5q-148 98 -263 254l228 223l-297 783q-23 55 -31 71.5t-31 44.5z" />
<glyph unicode="z" horiz-adv-x="1048" d="M51 211l531 625l-248 -19l-105 -139l-137 22q16 238 33 371h825l29 -242l-492 -593l258 18l121 143l142 -28q-10 -156 -39 -369h-899z" />
<glyph unicode="{" horiz-adv-x="755" d="M33 459q14 147 39 274q82 16 117.5 62.5t47 131.5t19.5 292q8 209 82 301t254 92h82l-33 -275q-72 0 -98.5 -15t-34.5 -64.5t-12 -188.5q-4 -172 -16.5 -249t-52.5 -127t-136 -99q96 -51 137 -103.5t52.5 -127t15.5 -246.5q4 -141 12 -189.5t34.5 -64t98.5 -15.5h33 l-37 -276h-45q-127 0 -198.5 44t-101.5 128t-36 223q-8 215 -20.5 304t-56.5 134.5t-146 53.5z" />
<glyph unicode="|" horiz-adv-x="663" d="M246 -465v2038h172v-2038h-172z" />
<glyph unicode="}" horiz-adv-x="753" d="M82 -428l33 274q72 0 97.5 15.5t33.5 63.5t12 190q6 174 18.5 249.5t52.5 126t134 99.5q-96 51 -136 103t-51.5 126t-17.5 248q-4 141 -12 189.5t-34 63.5t-97 15h-33l37 277h45q127 0 198.5 -44t101.5 -128t36 -223q8 -215 20 -304.5t56.5 -134.5t146.5 -53 q-12 -145 -39 -274q-82 -16 -118 -62.5t-47 -131.5t-19 -292q-8 -209 -82 -301t-254 -92h-82z" />
<glyph unicode="&#xa1;" horiz-adv-x="675" d="M139 1077l305 82l78 -285l-307 -79zM166 -336l70 985h213l83 -952l-270 -33h-96z" />
<glyph unicode="&#xa2;" horiz-adv-x="1173" d="M92 555q0 252 133 405.5t365 169.5l-10 277h141l-12 -277q172 -12 348 -88q-8 -96 -56 -346l-137 -12l-135 170q-70 12 -125 12t-98 -8q-25 -43 -38 -112.5t-13 -145.5q0 -365 254 -364q55 0 141 20t180 55l51 -209q-67 -49 -167.5 -84.5t-206.5 -48.5l14 -288h-141 l12 284q-242 8 -371 161t-129 429z" />
<glyph unicode="&#xa3;" horiz-adv-x="1163" d="M68 0l4 178l153 43l23 285l-146 2l9 117l147 6l14 131q18 178 134 277.5t327 99.5q125 0 293 -35l-68 -275q-104 33 -177.5 44.5t-149.5 9.5l-23 -234l238 15l-15 -166l-235 2l-25 -262h207l125 155l174 -39l-30 -129q-29 -125 -99.5 -175t-195.5 -50h-684z" />
<glyph unicode="&#xa4;" horiz-adv-x="1323" d="M123 137l184 162q-74 102 -74 242q0 135 74 241l-182 164l129 137l166 -188q106 74 242 74q139 0 245 -74l160 184l133 -135l-182 -162q74 -111 74 -241q0 -133 -74 -244l180 -166l-135 -131l-160 182q-113 -72 -241 -71q-135 0 -244 75l-160 -178zM444 541 q0 -90 64.5 -154.5t153.5 -64.5q90 0 154.5 64.5t64.5 154.5t-64.5 154.5t-154.5 64.5q-88 0 -153 -64.5t-65 -154.5z" />
<glyph unicode="&#xa5;" horiz-adv-x="1435" d="M143 328v98l387 4l-69 107l-318 2v98l250 4l-164 252l-86 88l13 115h536l19 -156l-111 -45l172 -266l125 200q8 14 8 25q0 14 -18 33l-86 65l12 144h465l14 -154l-73 -37l-197 -256l270 2v-125l-360 4l-49 -63v-33l409 4v-125l-409 4v-45q0 -31 6 -42t33 -29l114 -78 l-8 -123h-627l-8 152l158 59v113z" />
<glyph unicode="&#xa6;" horiz-adv-x="663" d="M246 244h172v-709h-172v709zM246 864v709h172v-709h-172z" />
<glyph unicode="&#xa7;" horiz-adv-x="1153" d="M150 -260q12 193 24 297l119 22l129 -137q68 -20 149 -20q49 0 76 6q6 14 6 45q0 25 -12 41t-50 37.5t-134 70.5q-121 63 -184.5 113.5t-91 104t-27.5 126.5q0 135 49 216q156 -47 262 -95q-2 -6 -2 -22q0 -35 18.5 -57.5t59.5 -47t137 -71.5q135 -66 203.5 -114 t95.5 -97t27 -119q0 -168 -127 -261t-355 -93q-165 0 -372 55zM154 1049q0 166 120.5 261t331.5 95q86 0 181.5 -20.5t170.5 -51.5q0 -135 -18 -297l-109 -16l-135 147q-53 16 -157 17q-18 0 -64 -4q-6 -12 -6 -39t16.5 -48.5t59.5 -49t133 -72.5q135 -66 203.5 -114 t95.5 -96t27 -120q0 -66 -17.5 -127t-50.5 -104q-111 30 -283 102l2 35q0 27 -14 45t-52 40.5t-132 72.5q-121 63 -184.5 113t-91 103.5t-27.5 127.5z" />
<glyph unicode="&#xa8;" horiz-adv-x="1167" d="M164 1460l289 78l69 -256l-289 -78zM649 1460l287 78l69 -256l-286 -78z" />
<glyph unicode="&#xa9;" horiz-adv-x="1507" d="M113 561q0 174 86 320.5t232.5 232.5t320.5 86q176 0 323.5 -86t233.5 -232.5t86 -320.5t-86 -321.5t-233.5 -233.5t-323.5 -86q-174 0 -320.5 86t-232.5 233.5t-86 321.5zM289 604q0 -143 58.5 -265t166 -193.5t248.5 -71.5q90 0 182 24.5t164 67.5q106 152 106 350 q0 145 -58 267t-164.5 195t-248.5 73q-88 0 -181 -27t-165 -68q-109 -156 -108 -352zM459 559q0 154 79.5 238t223.5 84q121 0 221 -47l-27 -181l-71 -4l-62 90q-41 14 -88 15q-41 0 -69 -11q-16 -27 -25.5 -72.5t-9.5 -95.5q0 -197 155 -196q35 0 83.5 8t93.5 23l30 -99 q-49 -31 -117.5 -50t-130.5 -19q-137 0 -211.5 84t-74.5 233z" />
<glyph unicode="&#xaa;" horiz-adv-x="813" d="M88 541v98h637v-98h-637zM94 920q0 92 97.5 146t273.5 56q0 57 -8 84t-32 36t-75 9q-45 0 -63 -2l-51 -94l-89 4q-23 121 -28 197q66 25 145.5 38t155.5 13q121 0 174 -50t53 -163v-250q0 -20 4 -27.5t21 -17.5l47 -29l-6 -73q-127 -31 -215 -39l-19 67q-43 -33 -98 -51 t-107 -18q-81 0 -130.5 45t-49.5 119zM281 965q0 -35 18 -54.5t51 -19.5q47 0 117 33l-2 90h-37q-37 0 -80 -6.5t-61 -14.5q-6 -12 -6 -28z" />
<glyph unicode="&#xab;" horiz-adv-x="1021" d="M41 567l301 441l156 -27l-187 -414l170 -420l-164 -26zM483 567l301 441l158 -27l-188 -414l172 -420l-166 -26z" />
<glyph unicode="&#xac;" horiz-adv-x="1304" d="M164 567v219h977l-4 -499h-224v280h-749z" />
<glyph unicode="&#xad;" horiz-adv-x="946" d="M180 492v202l500 68h106v-270h-606z" />
<glyph unicode="&#xae;" horiz-adv-x="1073" d="M98 975q0 121 58.5 222t159 159.5t221.5 58.5t221 -58.5t158.5 -159.5t58.5 -222t-58.5 -221.5t-159 -158.5t-220.5 -58q-121 0 -221.5 58t-159 158.5t-58.5 221.5zM219 1010q0 -100 40 -185.5t113.5 -135.5t170.5 -50q61 0 124.5 18.5t112.5 47.5q35 53 54.5 114.5 t19.5 124.5q0 100 -40 184t-112.5 134.5t-171.5 50.5q-61 0 -124.5 -18.5t-112.5 -47.5q-74 -104 -74 -237zM354 1130l4 52q111 14 177 14q96 0 139 -29.5t43 -97.5q0 -37 -19.5 -65.5t-56.5 -42.5l98 -156l-2 -27h-114l-95 164h-16v-68q0 -12 1 -19t9 -11l29 -13l-6 -53 h-185l-2 62l43 14v231q0 14 -3 19.5t-13 9.5zM514 1014q12 -2 37 -2q33 0 45 6q6 18 6 51q0 31 -12 43t-45 12q-25 0 -31 -2v-108z" />
<glyph unicode="&#xaf;" horiz-adv-x="1167" d="M268 1249v228l627 -25v-184z" />
<glyph unicode="&#xb0;" horiz-adv-x="817" d="M82 1104q0 143 99.5 222t248.5 79q145 0 224 -75t79 -200q0 -143 -99 -219.5t-249 -76.5q-145 0 -224 72.5t-79 197.5zM291 1139q0 -176 141 -176q43 0 76 16q20 57 20 129q0 164 -137 164q-35 0 -86 -12q-14 -47 -14 -121z" />
<glyph unicode="&#xb1;" horiz-adv-x="1150" d="M164 0v207l823 2v-209h-823zM164 651v195h305v278h215v-278h303v-195h-303v-276h-215v276h-305z" />
<glyph unicode="&#xb2;" horiz-adv-x="778" d="M123 995l141 111q109 82 164 127q6 18 6 61q0 47 -27.5 67.5t-84.5 20.5q-68 0 -166 -14l-6 55l20 136q106 29 203 28q125 0 196.5 -56t71.5 -155q0 -96 -60.5 -171t-209.5 -193l231 39h53l-12 -215h-516z" />
<glyph unicode="&#xb3;" horiz-adv-x="817" d="M123 860l78 166h55q80 -27 158 -27q63 0 100 21q0 55 -26.5 81.5t-88.5 31.5l-61 4q-14 0 -36.5 1t-55.5 5q10 47 41 137l53 6q82 12 88 14q2 14 2 37q0 37 -17.5 50.5t-58.5 13.5q-82 0 -161 -15l-9 44l15 126q111 37 196 37q109 0 177.5 -45t68.5 -116q0 -68 -76 -152 q68 -23 98.5 -61.5t30.5 -104.5q0 -84 -50 -152.5t-137 -108.5t-190 -40q-112 0 -194 47z" />
<glyph unicode="&#xb4;" horiz-adv-x="1167" d="M367 1194l195 354h368v-84l-385 -270h-178z" />
<glyph unicode="&#xb5;" horiz-adv-x="1359" d="M51 866l8 154q29 4 91 16q88 16 183 31.5t156 17.5q25 -55 33 -118v-547q0 -70 8.5 -104.5t37 -52t89.5 -17.5q90 0 191 37v446q0 47 -5 60.5t-34 27.5l-92 49l10 154l88 16q90 16 186.5 31.5t155.5 17.5q18 -43 33 -118v-672q0 -39 7 -53.5t34 -26.5l80 -47l-8 -129 q-92 -23 -205 -39t-211 -20q-6 16 -15.5 49.5t-13.5 50.5h-6q-78 -47 -166 -77t-164 -32v-385l-270 -51h-70v1194q0 45 -6 58.5t-35 29.5z" />
<glyph unicode="&#xb6;" horiz-adv-x="1210" d="M113 961q0 213 110.5 316t321.5 103h481v-1677h-147v1530h-168v-1530h-148v827h-18q-209 0 -320.5 106.5t-111.5 324.5z" />
<glyph unicode="&#xb7;" horiz-adv-x="548" d="M100 760l277 76l72 -254l-277 -74z" />
<glyph unicode="&#xb8;" horiz-adv-x="1167" d="M360 -389q74 0 135.5 12t89.5 33q4 25 4 39q0 35 -30.5 49t-130.5 27v41l67 231h160l-80 -115q49 -10 115 -28q61 -23 92 -53.5t31 -86.5q0 -109 -116 -167t-317 -58z" />
<glyph unicode="&#xb9;" horiz-adv-x="747" d="M123 977l145 29v307q0 27 -4 34t-28 21l-113 59l12 93l252 75l113 -10v-538q0 -29 4 -38.5t22 -19.5l99 -47l-4 -106h-494z" />
<glyph unicode="&#xba;" horiz-adv-x="815" d="M90 541v98h637v-98h-637zM98 1071q0 156 84 246t230 90q305 0 305 -317q0 -158 -84 -246t-234 -88q-153 0 -227 77.5t-74 237.5zM297 1106q0 -209 123 -209q33 0 78 16q16 59 16 152q0 199 -121 199q-31 0 -80 -15q-6 -16 -11 -57t-5 -86z" />
<glyph unicode="&#xbb;" horiz-adv-x="1021" d="M80 981l158 27l301 -441l-279 -446l-164 26l170 420zM524 981l156 27l301 -441l-276 -446l-164 26l170 420z" />
<glyph unicode="&#xbc;" horiz-adv-x="1779" d="M123 733l145 29v307q0 27 -4 34t-28 21l-113 62l12 92l252 74l113 -11v-536q0 -31 4 -40t22 -20l99 -47l-4 -104h-494zM449 -178l749 1616h119l-750 -1616h-118zM975 272l307 469l250 -22l8 -400h117l-29 -190h-88v-129l-158 -33h-45v162h-329zM1194 319h143v246z" />
<glyph unicode="&#xbd;" horiz-adv-x="1759" d="M123 733l145 29v307q0 27 -4 34t-28 21l-113 62l12 92l252 74l113 -11v-536q0 -31 4 -40t22 -20l99 -47l-4 -104h-494zM449 -178l749 1616h119l-750 -1616h-118zM1098 158q4 4 143 110q96 70 168 129q8 25 8 60q0 47 -26.5 67.5t-81.5 20.5q-66 0 -170 -13l-4 54l16 137 q113 27 209 27q123 0 194.5 -54.5t71.5 -148.5q0 -102 -62.5 -182t-215.5 -193l233 43h55l-18 -215h-514z" />
<glyph unicode="&#xbe;" horiz-adv-x="1785" d="M123 621l74 163h59q68 -27 156 -26q63 0 102 18q0 55 -28.5 84t-90.5 33q-18 0 -62 2t-87 6q12 59 37 135q98 12 143 23q2 14 2 37q0 37 -17.5 50t-58.5 13q-80 0 -162 -14l-8 45l13 125q111 37 196 37q111 0 180.5 -44t69.5 -116q0 -66 -78 -156q68 -18 97.5 -57 t29.5 -107q0 -84 -50 -153.5t-135 -109.5t-188 -40q-108 1 -194 52zM455 -178l749 1616h119l-750 -1616h-118zM981 272l307 469l248 -22l10 -400h117l-31 -190h-86v-129l-160 -33h-45v162h-327zM1200 319h141v246z" />
<glyph unicode="&#xbf;" horiz-adv-x="772" d="M72 -37q0 76 37.5 136.5t109.5 136.5l37 40q37 41 53.5 69t16.5 54q0 27 -15.5 56.5t-56.5 89.5q113 82 258 157q59 -115 59 -196q0 -94 -88 -209l-73 -94q-2 -70 22.5 -106t73.5 -53t164 -44l73 -18l-4 -62q-78 -152 -166 -266q-247 41 -374 109.5t-127 199.5zM231 1075 l304 82l77 -285l-305 -79z" />
<glyph unicode="&#xc0;" d="M33 182l63 39l479 1161l349 31l409 -1106q20 -53 28.5 -69.5t31.5 -44.5l37 -48l-13 -145h-575l-21 195l146 36l-66 207l-416 -6l-45 -129q-6 -18 -6 -31q0 -14 5 -21t18 -11l141 -60l-20 -180h-537zM352 1802v84h369l194 -354h-176zM567 670l264 -13l-129 406z" />
<glyph unicode="&#xc1;" d="M33 182l63 39l479 1161l349 31l409 -1106q20 -53 28.5 -69.5t31.5 -44.5l37 -48l-13 -145h-575l-21 195l146 36l-66 207l-416 -6l-45 -129q-6 -18 -6 -31q0 -14 5 -21t18 -11l141 -60l-20 -180h-537zM567 670l264 -13l-129 406zM633 1532l195 354h368v-84l-385 -270h-178 z" />
<glyph unicode="&#xc2;" d="M33 182l63 39l479 1161l349 31l409 -1106q20 -53 28.5 -69.5t31.5 -44.5l37 -48l-13 -145h-575l-21 195l146 36l-66 207l-416 -6l-45 -129q-6 -18 -6 -31q0 -14 5 -21t18 -11l141 -60l-20 -180h-537zM365 1532l256 354h305l256 -354h-170l-240 149l-237 -149h-170z M567 670l264 -13l-129 406z" />
<glyph unicode="&#xc3;" d="M33 182l63 39l479 1161l349 31l409 -1106q20 -53 28.5 -69.5t31.5 -44.5l37 -48l-13 -145h-575l-21 195l146 36l-66 207l-416 -6l-45 -129q-6 -18 -6 -31q0 -14 5 -21t18 -11l141 -60l-20 -180h-537zM410 1579q33 145 87 213t138 68q41 0 85 -11.5t106 -33.5 q10 -4 61 -20.5t90 -16.5q10 6 24.5 22.5t35.5 40.5h112q-33 -145 -87 -212.5t-138 -67.5q-63 0 -190 45q-41 14 -82 25.5t-68 11.5q-12 -6 -27.5 -21.5t-33.5 -42.5h-113zM567 670l264 -13l-129 406z" />
<glyph unicode="&#xc4;" d="M33 182l63 39l479 1161l349 31l409 -1106q20 -53 28.5 -69.5t31.5 -44.5l37 -48l-13 -145h-575l-21 195l146 36l-66 207l-416 -6l-45 -129q-6 -18 -6 -31q0 -14 5 -21t18 -11l141 -60l-20 -180h-537zM350 1833l289 78l69 -256l-289 -78zM567 670l264 -13l-129 406z M835 1833l287 78l69 -256l-286 -78z" />
<glyph unicode="&#xc5;" d="M33 182l63 39l479 1161l349 31l409 -1106q20 -53 28.5 -69.5t31.5 -44.5l37 -48l-13 -145h-575l-21 195l146 36l-66 207l-416 -6l-45 -129q-6 -18 -6 -31q0 -14 5 -21t18 -11l141 -60l-20 -180h-537zM520 1731q0 94 69.5 151t184.5 57q248 0 248 -198q0 -98 -67 -152.5 t-187 -54.5q-129 0 -188.5 47t-59.5 150zM567 670l264 -13l-129 406zM692 1747q0 -49 21.5 -75.5t62.5 -26.5t61 8q12 53 13 76q0 94 -86 94q-43 0 -60 -4q-12 -29 -12 -72z" />
<glyph unicode="&#xc6;" horiz-adv-x="1898" d="M-20 182l63 39l748 1159h1001q14 -215 14 -419l-153 -11l-146 180l-282 9l28 -334l381 37v-316l-360 47l29 -329l235 6l160 180l151 -10q-8 -184 -32 -420h-988l-20 195l127 36l-14 207l-420 -4l-74 -129q-8 -16 -8 -29q0 -25 24 -36l142 -60l-21 -180h-577zM635 664 l272 -15l-30 453z" />
<glyph unicode="&#xc7;" horiz-adv-x="1316" d="M51 698q0 221 81 382t234.5 246t364.5 85q240 0 494 -108q-18 -184 -60 -408l-155 -10l-142 207q-90 27 -198 26q-82 0 -156 -14q-33 -63 -53.5 -168t-20.5 -211q0 -227 83 -336.5t263 -114.5q72 0 181.5 21.5t214.5 56.5l63 -225q-94 -61 -226 -104t-261 -52l-31 -43 q49 -10 115 -28q61 -23 92 -53.5t31 -86.5q0 -109 -116 -167t-317 -58l-20 76q74 0 135.5 12t89.5 33q4 25 4 39q0 35 -30.5 49t-130.5 27v41l47 159q-279 23 -427.5 211.5t-148.5 515.5z" />
<glyph unicode="&#xc8;" horiz-adv-x="1275" d="M51 1196l6 184h1112q14 -215 15 -419l-152 -11l-145 180l-309 9v-334l436 37v-316l-436 47v-329l340 6l157 180l152 -10q-8 -215 -31 -420h-1130l-11 209l150 41v784q0 53 -8.5 70.5t-42.5 32.5zM223 1775v84h369l194 -354h-176z" />
<glyph unicode="&#xc9;" horiz-adv-x="1275" d="M51 1196l6 184h1112q14 -215 15 -419l-152 -11l-145 180l-309 9v-334l436 37v-316l-436 47v-329l340 6l157 180l152 -10q-8 -215 -31 -420h-1130l-11 209l150 41v784q0 53 -8.5 70.5t-42.5 32.5zM504 1505l195 354h368v-84l-385 -270h-178z" />
<glyph unicode="&#xca;" horiz-adv-x="1275" d="M51 1196l6 184h1112q14 -215 15 -419l-152 -11l-145 180l-309 9v-334l436 37v-316l-436 47v-329l340 6l157 180l152 -10q-8 -215 -31 -420h-1130l-11 209l150 41v784q0 53 -8.5 70.5t-42.5 32.5zM236 1505l256 354h305l256 -354h-170l-240 149l-237 -149h-170z" />
<glyph unicode="&#xcb;" horiz-adv-x="1275" d="M51 1196l6 184h1112q14 -215 15 -419l-152 -11l-145 180l-309 9v-334l436 37v-316l-436 47v-329l340 6l157 180l152 -10q-8 -215 -31 -420h-1130l-11 209l150 41v784q0 53 -8.5 70.5t-42.5 32.5zM221 1806l289 78l69 -256l-289 -78zM706 1806l287 78l69 -256l-286 -78z " />
<glyph unicode="&#xcc;" horiz-adv-x="794" d="M-21 1775v84h369l194 -354h-176zM57 1198l11 182h657l8 -209l-147 -41v-798q0 -49 7 -63.5t38 -28.5l104 -64l-6 -176h-653l-10 209l149 41v784q0 53 -8 70.5t-43 32.5z" />
<glyph unicode="&#xcd;" horiz-adv-x="794" d="M57 1198l11 182h657l8 -209l-147 -41v-798q0 -49 7 -63.5t38 -28.5l104 -64l-6 -176h-653l-10 209l149 41v784q0 53 -8 70.5t-43 32.5zM260 1505l195 354h368v-84l-385 -270h-178z" />
<glyph unicode="&#xce;" horiz-adv-x="794" d="M-8 1505l256 354h305l256 -354h-170l-240 149l-237 -149h-170zM57 1198l11 182h657l8 -209l-147 -41v-798q0 -49 7 -63.5t38 -28.5l104 -64l-6 -176h-653l-10 209l149 41v784q0 53 -8 70.5t-43 32.5z" />
<glyph unicode="&#xcf;" horiz-adv-x="794" d="M-22 1806l289 78l69 -256l-289 -78zM57 1198l11 182h657l8 -209l-147 -41v-798q0 -49 7 -63.5t38 -28.5l104 -64l-6 -176h-653l-10 209l149 41v784q0 53 -8 70.5t-43 32.5zM463 1806l287 78l69 -256l-286 -78z" />
<glyph unicode="&#xd0;" horiz-adv-x="1507" d="M68 1192l12 170q213 16 358.5 25.5t233.5 9.5q282 0 453 -65.5t250 -207t79 -374.5q0 -295 -135 -478q-121 -158 -320.5 -218t-504.5 -60q-221 0 -408 18l-10 197l149 41v358l-149 6v140l149 14v262q0 53 -8 70.5t-43 32.5zM596 297q82 -10 156 -10q172 0 272 41 q18 51 33.5 159.5t15.5 202.5q0 231 -95 342t-290 111q-27 0 -49.5 -2t-42.5 -4v-334l178 16v-233l-178 8v-297z" />
<glyph unicode="&#xd1;" horiz-adv-x="1531" d="M57 223l111 27l8 807q0 39 -6 53t-29 33l-75 57l14 180h424l618 -792l-28 456q-2 49 -10.5 63.5t-36.5 31.5l-107 69l6 172h529l8 -209l-105 -45l-8 -1108l-235 -77l-715 931l35 -536q2 -47 10 -61.5t37 -30.5l106 -72l-8 -172h-532zM408 1552q33 145 87 213t138 68 q41 0 85 -11.5t106 -33.5q10 -4 61 -20.5t90 -16.5q10 6 24.5 22.5t35.5 40.5h112q-33 -145 -87 -212.5t-138 -67.5q-63 0 -190 45q-41 14 -82 25.5t-68 11.5q-12 -6 -27.5 -21.5t-33.5 -42.5h-113z" />
<glyph unicode="&#xd2;" horiz-adv-x="1478" d="M51 666q0 227 84 394t239.5 257t370.5 90q684 0 685 -698q0 -229 -84 -395.5t-243 -254.5t-378 -88q-340 0 -507 172t-167 523zM327 1775v84h369l194 -354h-176zM432 745q0 -238 86 -364.5t250 -126.5q117 0 223 59q23 63 35 158.5t12 187.5q0 227 -85 344t-248 117 q-117 0 -226 -43q-23 -39 -35 -128t-12 -204z" />
<glyph unicode="&#xd3;" horiz-adv-x="1478" d="M51 666q0 227 84 394t239.5 257t370.5 90q684 0 685 -698q0 -229 -84 -395.5t-243 -254.5t-378 -88q-340 0 -507 172t-167 523zM432 745q0 -238 86 -364.5t250 -126.5q117 0 223 59q23 63 35 158.5t12 187.5q0 227 -85 344t-248 117q-117 0 -226 -43q-23 -39 -35 -128 t-12 -204zM608 1505l195 354h368v-84l-385 -270h-178z" />
<glyph unicode="&#xd4;" horiz-adv-x="1478" d="M51 666q0 227 84 394t239.5 257t370.5 90q684 0 685 -698q0 -229 -84 -395.5t-243 -254.5t-378 -88q-340 0 -507 172t-167 523zM340 1505l256 354h305l256 -354h-170l-240 149l-237 -149h-170zM432 745q0 -238 86 -364.5t250 -126.5q117 0 223 59q23 63 35 158.5 t12 187.5q0 227 -85 344t-248 117q-117 0 -226 -43q-23 -39 -35 -128t-12 -204z" />
<glyph unicode="&#xd5;" horiz-adv-x="1478" d="M51 666q0 227 84 394t239.5 257t370.5 90q684 0 685 -698q0 -229 -84 -395.5t-243 -254.5t-378 -88q-340 0 -507 172t-167 523zM385 1552q33 145 87 213t138 68q41 0 85 -11.5t106 -33.5q10 -4 61 -20.5t90 -16.5q10 6 24.5 22.5t35.5 40.5h112q-33 -145 -87 -212.5 t-138 -67.5q-63 0 -190 45q-41 14 -82 25.5t-68 11.5q-12 -6 -27.5 -21.5t-33.5 -42.5h-113zM432 745q0 -238 86 -364.5t250 -126.5q117 0 223 59q23 63 35 158.5t12 187.5q0 227 -85 344t-248 117q-117 0 -226 -43q-23 -39 -35 -128t-12 -204z" />
<glyph unicode="&#xd6;" horiz-adv-x="1478" d="M51 666q0 227 84 394t239.5 257t370.5 90q684 0 685 -698q0 -229 -84 -395.5t-243 -254.5t-378 -88q-340 0 -507 172t-167 523zM326 1806l289 78l69 -256l-289 -78zM432 745q0 -238 86 -364.5t250 -126.5q117 0 223 59q23 63 35 158.5t12 187.5q0 227 -85 344t-248 117 q-117 0 -226 -43q-23 -39 -35 -128t-12 -204zM811 1806l287 78l69 -256l-286 -78z" />
<glyph unicode="&#xd7;" horiz-adv-x="1105" d="M143 297l246 248l-246 246l162 163l248 -247l246 247l164 -163l-248 -246l248 -248l-164 -162l-246 246l-248 -246z" />
<glyph unicode="&#xd8;" horiz-adv-x="1478" d="M51 666q0 227 84 394t239.5 257t370.5 90q209 0 349 -64l75 105h232l-150 -207q179 -174 179 -532q0 -229 -84 -395.5t-243 -254.5t-378 -88q-205 0 -346 62l-70 -96h-231l145 200q-172 176 -172 529zM432 745q0 -155 37 -266l424 586q-76 55 -188 55q-117 0 -226 -43 q-23 -39 -35 -128t-12 -204zM582 313q76 -59 186 -59q117 0 223 59q23 64 35 159t12 187q0 143 -32 242z" />
<glyph unicode="&#xd9;" horiz-adv-x="1542" d="M51 1176l6 204h639l11 -202l-170 -48v-419q0 -213 61 -336t211 -123q49 0 95 14.5t79 38.5q20 47 28.5 126t8.5 212v391q0 53 -8 70.5t-43 32.5l-101 57l11 186h608l10 -221l-106 -29v-462q0 -330 -169 -512.5t-477 -182.5q-301 0 -441 159t-140 499v403q0 53 -7 70.5 t-40 32.5zM373 1775v84h369l194 -354h-176z" />
<glyph unicode="&#xda;" horiz-adv-x="1542" d="M51 1176l6 204h639l11 -202l-170 -48v-419q0 -213 61 -336t211 -123q49 0 95 14.5t79 38.5q20 47 28.5 126t8.5 212v391q0 53 -8 70.5t-43 32.5l-101 57l11 186h608l10 -221l-106 -29v-462q0 -330 -169 -512.5t-477 -182.5q-301 0 -441 159t-140 499v403q0 53 -7 70.5 t-40 32.5zM653 1505l195 354h368v-84l-385 -270h-178z" />
<glyph unicode="&#xdb;" horiz-adv-x="1542" d="M51 1176l6 204h639l11 -202l-170 -48v-419q0 -213 61 -336t211 -123q49 0 95 14.5t79 38.5q20 47 28.5 126t8.5 212v391q0 53 -8 70.5t-43 32.5l-101 57l11 186h608l10 -221l-106 -29v-462q0 -330 -169 -512.5t-477 -182.5q-301 0 -441 159t-140 499v403q0 53 -7 70.5 t-40 32.5zM385 1505l256 354h305l256 -354h-170l-240 149l-237 -149h-170z" />
<glyph unicode="&#xdc;" horiz-adv-x="1542" d="M51 1176l6 204h639l11 -202l-170 -48v-419q0 -213 61 -336t211 -123q49 0 95 14.5t79 38.5q20 47 28.5 126t8.5 212v391q0 53 -8 70.5t-43 32.5l-101 57l11 186h608l10 -221l-106 -29v-462q0 -330 -169 -512.5t-477 -182.5q-301 0 -441 159t-140 499v403q0 53 -7 70.5 t-40 32.5zM371 1806l289 78l69 -256l-289 -78zM856 1806l287 78l69 -256l-286 -78z" />
<glyph unicode="&#xdd;" horiz-adv-x="1378" d="M35 1237l8 143h600l21 -194l-134 -37l215 -365l179 301q8 14 8 29q0 23 -25 33l-119 53l15 180h516l14 -192l-82 -49l-377 -553v-254q0 -49 7.5 -63.5t36.5 -28.5l126 -76l-8 -164h-698l-10 201l176 49v270l-375 600zM596 1505l195 354h368v-84l-385 -270h-178z" />
<glyph unicode="&#xde;" horiz-adv-x="1277" d="M57 1219l11 161h657l8 -188l-147 -43v-80l78 2q594 14 593 -360q0 -195 -149.5 -300.5t-405.5 -97.5l-114 4v-6q0 -47 7 -61t38 -31l123 -72l-8 -147h-672l-10 188l149 43v813q0 55 -8 75t-43 36zM588 518q51 -10 123 -10q106 0 149 20q23 78 23 166q0 111 -42 149 t-145 38q-72 0 -108 -4v-359z" />
<glyph unicode="&#xdf;" horiz-adv-x="1327" d="M51 186l144 43v596l-144 2v201l144 8v101q0 203 131 316.5t358 113.5q158 0 268.5 -55.5t166 -150.5t55.5 -216q0 -23 -1.5 -35t-1.5 -18l-112 -101q-59 -55 -78.5 -80.5t-19.5 -58.5q0 -49 32.5 -91t100.5 -99q66 -57 105.5 -102.5t69 -111t29.5 -149.5 q0 -158 -104 -245t-262 -87q-137 1 -311 64q2 63 22 229l6 49h37l139 -59q96 -41 158 -41q31 0 49 10q2 6 2 19q0 35 -24.5 63.5t-114.5 108.5q-131 115 -181 185.5t-50 164.5q0 78 28.5 128t95.5 122q10 14 23.5 27.5t26.5 27.5q4 23 4 53q0 176 -193 176q-61 0 -110 -14 v-1280h-482z" />
<glyph unicode="&#xe0;" horiz-adv-x="1134" d="M41 248q0 162 163 254t474 104q0 96 -15.5 142.5t-55.5 63.5t-122 17q-84 0 -118 -6l-84 -166l-152 11q-35 164 -49 340q115 39 251 61.5t255 22.5q217 0 311 -85t94 -282v-428q0 -37 7.5 -51.5t31.5 -28.5l82 -47l-8 -127q-238 -55 -375 -61q-4 12 -12 43.5t-14 60.5 q-80 -51 -175.5 -82t-181.5 -31q-139 0 -223 77t-84 198zM143 1462v84h369l194 -354h-176zM358 334q0 -61 34 -95t93 -34q82 0 199 55l-8 156q-49 4 -66 4q-55 0 -128.5 -11.5t-116.5 -25.5q-6 -27 -7 -49z" />
<glyph unicode="&#xe1;" horiz-adv-x="1134" d="M41 248q0 162 163 254t474 104q0 96 -15.5 142.5t-55.5 63.5t-122 17q-84 0 -118 -6l-84 -166l-152 11q-35 164 -49 340q115 39 251 61.5t255 22.5q217 0 311 -85t94 -282v-428q0 -37 7.5 -51.5t31.5 -28.5l82 -47l-8 -127q-238 -55 -375 -61q-4 12 -12 43.5t-14 60.5 q-80 -51 -175.5 -82t-181.5 -31q-139 0 -223 77t-84 198zM358 334q0 -61 34 -95t93 -34q82 0 199 55l-8 156q-49 4 -66 4q-55 0 -128.5 -11.5t-116.5 -25.5q-6 -27 -7 -49zM424 1192l195 354h368v-84l-385 -270h-178z" />
<glyph unicode="&#xe2;" horiz-adv-x="1134" d="M41 248q0 162 163 254t474 104q0 96 -15.5 142.5t-55.5 63.5t-122 17q-84 0 -118 -6l-84 -166l-152 11q-35 164 -49 340q115 39 251 61.5t255 22.5q217 0 311 -85t94 -282v-428q0 -37 7.5 -51.5t31.5 -28.5l82 -47l-8 -127q-238 -55 -375 -61q-4 12 -12 43.5t-14 60.5 q-80 -51 -175.5 -82t-181.5 -31q-139 0 -223 77t-84 198zM156 1192l256 354h305l256 -354h-170l-240 149l-237 -149h-170zM358 334q0 -61 34 -95t93 -34q82 0 199 55l-8 156q-49 4 -66 4q-55 0 -128.5 -11.5t-116.5 -25.5q-6 -27 -7 -49z" />
<glyph unicode="&#xe3;" horiz-adv-x="1134" d="M41 248q0 162 163 254t474 104q0 96 -15.5 142.5t-55.5 63.5t-122 17q-84 0 -118 -6l-84 -166l-152 11q-35 164 -49 340q115 39 251 61.5t255 22.5q217 0 311 -85t94 -282v-428q0 -37 7.5 -51.5t31.5 -28.5l82 -47l-8 -127q-238 -55 -375 -61q-4 12 -12 43.5t-14 60.5 q-80 -51 -175.5 -82t-181.5 -31q-139 0 -223 77t-84 198zM201 1239q33 145 87 213t138 68q41 0 85 -11.5t106 -33.5q10 -4 61 -20.5t90 -16.5q10 6 24.5 22.5t35.5 40.5h112q-33 -145 -87 -212.5t-138 -67.5q-63 0 -190 45q-41 14 -82 25.5t-68 11.5q-12 -6 -27.5 -21.5 t-33.5 -42.5h-113zM358 334q0 -61 34 -95t93 -34q82 0 199 55l-8 156q-49 4 -66 4q-55 0 -128.5 -11.5t-116.5 -25.5q-6 -27 -7 -49z" />
<glyph unicode="&#xe4;" horiz-adv-x="1134" d="M41 248q0 162 163 254t474 104q0 96 -15.5 142.5t-55.5 63.5t-122 17q-84 0 -118 -6l-84 -166l-152 11q-35 164 -49 340q115 39 251 61.5t255 22.5q217 0 311 -85t94 -282v-428q0 -37 7.5 -51.5t31.5 -28.5l82 -47l-8 -127q-238 -55 -375 -61q-4 12 -12 43.5t-14 60.5 q-80 -51 -175.5 -82t-181.5 -31q-139 0 -223 77t-84 198zM142 1493l289 78l69 -256l-289 -78zM358 334q0 -61 34 -95t93 -34q82 0 199 55l-8 156q-49 4 -66 4q-55 0 -128.5 -11.5t-116.5 -25.5q-6 -27 -7 -49zM627 1493l287 78l69 -256l-286 -78z" />
<glyph unicode="&#xe5;" horiz-adv-x="1134" d="M41 248q0 162 163 254t474 104q0 96 -15.5 142.5t-55.5 63.5t-122 17q-84 0 -118 -6l-84 -166l-152 11q-35 164 -49 340q115 39 251 61.5t255 22.5q217 0 311 -85t94 -282v-428q0 -37 7.5 -51.5t31.5 -28.5l82 -47l-8 -127q-238 -55 -375 -61q-4 12 -12 43.5t-14 60.5 q-80 -51 -175.5 -82t-181.5 -31q-139 0 -223 77t-84 198zM311 1391q0 94 69.5 151t184.5 57q248 0 248 -198q0 -98 -67 -152.5t-187 -54.5q-129 0 -188.5 47t-59.5 150zM358 334q0 -61 34 -95t93 -34q82 0 199 55l-8 156q-49 4 -66 4q-55 0 -128.5 -11.5t-116.5 -25.5 q-6 -27 -7 -49zM483 1407q0 -49 21.5 -75.5t62.5 -26.5t61 8q12 53 13 76q0 94 -86 94q-43 0 -60 -4q-12 -29 -12 -72z" />
<glyph unicode="&#xe6;" horiz-adv-x="1712" d="M37 246q0 166 164 257t473 103q0 96 -14.5 142.5t-55.5 63.5t-127 17t-115 -6l-83 -166l-152 11q-37 195 -49 340q111 37 246 60.5t247 23.5q213 0 318 -88q125 88 303 88q233 0 356 -147.5t115 -420.5l-623 -108q25 -90 78 -131t142 -41q59 0 141 17.5t166 47.5l49 -203 q-74 -57 -197 -94t-245 -37q-244 0 -373 152q-90 -70 -211 -113t-234 -43q-147 0 -233 75t-86 200zM354 332q0 -61 34 -94t95 -33q45 0 106.5 19.5t123.5 54.5q-23 84 -31 137q-57 4 -76 4q-61 0 -134 -11.5t-112 -25.5q-6 -27 -6 -51zM1024 612l303 84q-10 152 -160 152 q-59 0 -108 -19q-39 -94 -35 -217z" />
<glyph unicode="&#xe7;" horiz-adv-x="1032" d="M31 524q0 268 140 418t384 150q184 0 395 -84q-4 -59 -18 -156.5t-31 -179.5l-137 -13l-127 162q-51 10 -115 10q-51 0 -94 -6q-47 -90 -47 -254q0 -168 59.5 -248.5t180.5 -80.5q57 0 139 17t168 50l49 -205q-70 -49 -173.5 -84.5t-209.5 -44.5l-33 -47q49 -10 115 -28 q61 -23 92 -53.5t31 -86.5q0 -109 -116 -167t-316 -58l-21 76q74 0 135.5 12t89.5 33q4 25 4 39q0 35 -30.5 49t-130.5 27v41l49 165q-207 20 -319.5 165t-112.5 382z" />
<glyph unicode="&#xe8;" horiz-adv-x="1067" d="M31 522q0 178 63.5 306t180 196t272.5 68q231 0 355 -147.5t118 -420.5l-623 -114q29 -86 81 -126t138 -40q59 0 141.5 17.5t166.5 47.5l47 -203q-76 -57 -197 -94t-244 -37q-239 0 -369 145.5t-130 401.5zM125 1462v84h369l194 -354h-176zM377 612l307 84q-4 78 -44 114 t-112 36q-59 0 -112 -17q-43 -100 -39 -217z" />
<glyph unicode="&#xe9;" horiz-adv-x="1067" d="M31 522q0 178 63.5 306t180 196t272.5 68q231 0 355 -147.5t118 -420.5l-623 -114q29 -86 81 -126t138 -40q59 0 141.5 17.5t166.5 47.5l47 -203q-76 -57 -197 -94t-244 -37q-239 0 -369 145.5t-130 401.5zM377 612l307 84q-4 78 -44 114t-112 36q-59 0 -112 -17 q-43 -100 -39 -217zM405 1192l195 354h368v-84l-385 -270h-178z" />
<glyph unicode="&#xea;" horiz-adv-x="1067" d="M31 522q0 178 63.5 306t180 196t272.5 68q231 0 355 -147.5t118 -420.5l-623 -114q29 -86 81 -126t138 -40q59 0 141.5 17.5t166.5 47.5l47 -203q-76 -57 -197 -94t-244 -37q-239 0 -369 145.5t-130 401.5zM137 1192l256 354h305l256 -354h-170l-240 149l-237 -149h-170z M377 612l307 84q-4 78 -44 114t-112 36q-59 0 -112 -17q-43 -100 -39 -217z" />
<glyph unicode="&#xeb;" horiz-adv-x="1067" d="M31 522q0 178 63.5 306t180 196t272.5 68q231 0 355 -147.5t118 -420.5l-623 -114q29 -86 81 -126t138 -40q59 0 141.5 17.5t166.5 47.5l47 -203q-76 -57 -197 -94t-244 -37q-239 0 -369 145.5t-130 401.5zM123 1493l289 78l69 -256l-289 -78zM377 612l307 84 q-4 78 -44 114t-112 36q-59 0 -112 -17q-43 -100 -39 -217zM608 1493l287 78l69 -256l-286 -78z" />
<glyph unicode="&#xec;" horiz-adv-x="710" d="M-74 1464v84h369l194 -354h-176zM51 188l144 43v498q0 45 -7.5 58.5t-35.5 29.5l-91 49l11 154q170 33 263 48t171 17q27 -88 33 -131v-655q0 -43 6 -57.5t35 -30.5l100 -57l-8 -154h-615z" />
<glyph unicode="&#xed;" horiz-adv-x="710" d="M51 188l144 43v498q0 45 -7.5 58.5t-35.5 29.5l-91 49l11 154q170 33 263 48t171 17q27 -88 33 -131v-655q0 -43 6 -57.5t35 -30.5l100 -57l-8 -154h-615zM207 1194l195 354h368v-84l-385 -270h-178z" />
<glyph unicode="&#xee;" horiz-adv-x="710" d="M-61 1194l256 354h305l256 -354h-170l-240 149l-237 -149h-170zM51 188l144 43v498q0 45 -7.5 58.5t-35.5 29.5l-91 49l11 154q170 33 263 48t171 17q27 -88 33 -131v-655q0 -43 6 -57.5t35 -30.5l100 -57l-8 -154h-615z" />
<glyph unicode="&#xef;" horiz-adv-x="710" d="M-76 1495l289 78l69 -256l-289 -78zM51 188l144 43v498q0 45 -7.5 58.5t-35.5 29.5l-91 49l11 154q170 33 263 48t171 17q27 -88 33 -131v-655q0 -43 6 -57.5t35 -30.5l100 -57l-8 -154h-615zM409 1495l287 78l69 -256l-286 -78z" />
<glyph unicode="&#xf0;" horiz-adv-x="1150" d="M31 504q0 279 142 433.5t392 154.5h21l-90 106l-236 -111l-10 144l156 74l-156 184l16 86l367 -27l72 -102l235 110l8 -143l-166 -78q137 -203 210 -355.5t95 -313.5q9 -49 9 -119q0 -274 -143.5 -424t-411.5 -150q-254 0 -382 135.5t-128 395.5zM371 582 q0 -369 219 -369q63 0 127 31q14 47 21 120.5t7 143.5q0 170 -53 253t-166 83q-55 0 -125 -19q-14 -31 -22 -98.5t-8 -144.5z" />
<glyph unicode="&#xf1;" horiz-adv-x="1351" d="M51 866l6 154l45 8q268 53 387 57q16 -43 27 -94q125 57 204 79t148 22q326 0 326 -390v-401q0 -43 6 -57.5t35 -30.5l98 -57l-8 -154h-565l-10 195l100 28v387q0 92 -6 129t-34 57.5t-97 20.5q-74 0 -187 -22v-496q0 -43 6.5 -57.5t32.5 -30.5l101 -57l-9 -154h-594 l-10 195l127 36v496q0 45 -6 58.5t-33 29.5zM305 1239q33 145 87 213t138 68q41 0 85 -11.5t106 -33.5q10 -4 61 -20.5t90 -16.5q10 6 24.5 22.5t35.5 40.5h112q-33 -145 -87 -212.5t-138 -67.5q-63 0 -190 45q-41 14 -82 25.5t-68 11.5q-12 -6 -27.5 -21.5t-33.5 -42.5 h-113z" />
<glyph unicode="&#xf2;" horiz-adv-x="1132" d="M31 514q0 176 64.5 307t185 201t284.5 70q530 0 531 -549q0 -268 -144.5 -419t-404.5 -151t-388 133.5t-128 407.5zM149 1464v84h369l194 -354h-176zM371 569q0 -172 54 -264t155 -92q41 0 71.5 7t65.5 24q12 47 20 120.5t8 141.5q0 166 -52 252t-154 86q-68 0 -138 -19 q-14 -31 -22 -99.5t-8 -156.5z" />
<glyph unicode="&#xf3;" horiz-adv-x="1132" d="M31 514q0 176 64.5 307t185 201t284.5 70q530 0 531 -549q0 -268 -144.5 -419t-404.5 -151t-388 133.5t-128 407.5zM371 569q0 -172 54 -264t155 -92q41 0 71.5 7t65.5 24q12 47 20 120.5t8 141.5q0 166 -52 252t-154 86q-68 0 -138 -19q-14 -31 -22 -99.5t-8 -156.5z M430 1194l195 354h368v-84l-385 -270h-178z" />
<glyph unicode="&#xf4;" horiz-adv-x="1132" d="M31 514q0 176 64.5 307t185 201t284.5 70q530 0 531 -549q0 -268 -144.5 -419t-404.5 -151t-388 133.5t-128 407.5zM162 1194l256 354h305l256 -354h-170l-240 149l-237 -149h-170zM371 569q0 -172 54 -264t155 -92q41 0 71.5 7t65.5 24q12 47 20 120.5t8 141.5 q0 166 -52 252t-154 86q-68 0 -138 -19q-14 -31 -22 -99.5t-8 -156.5z" />
<glyph unicode="&#xf5;" horiz-adv-x="1132" d="M31 514q0 176 64.5 307t185 201t284.5 70q530 0 531 -549q0 -268 -144.5 -419t-404.5 -151t-388 133.5t-128 407.5zM207 1241q33 145 87 213t138 68q41 0 85 -11.5t106 -33.5q10 -4 61 -20.5t90 -16.5q10 6 24.5 22.5t35.5 40.5h112q-33 -145 -87 -212.5t-138 -67.5 q-63 0 -190 45q-41 14 -82 25.5t-68 11.5q-12 -6 -27.5 -21.5t-33.5 -42.5h-113zM371 569q0 -172 54 -264t155 -92q41 0 71.5 7t65.5 24q12 47 20 120.5t8 141.5q0 166 -52 252t-154 86q-68 0 -138 -19q-14 -31 -22 -99.5t-8 -156.5z" />
<glyph unicode="&#xf6;" horiz-adv-x="1132" d="M31 514q0 176 64.5 307t185 201t284.5 70q530 0 531 -549q0 -268 -144.5 -419t-404.5 -151t-388 133.5t-128 407.5zM148 1495l289 78l69 -256l-289 -78zM371 569q0 -172 54 -264t155 -92q41 0 71.5 7t65.5 24q12 47 20 120.5t8 141.5q0 166 -52 252t-154 86 q-68 0 -138 -19q-14 -31 -22 -99.5t-8 -156.5zM633 1495l287 78l69 -256l-286 -78z" />
<glyph unicode="&#xf7;" horiz-adv-x="1492" d="M164 430v227h1165v-227h-1165zM571 184l277 74l74 -246l-275 -73zM571 1075l277 74l74 -248l-275 -74z" />
<glyph unicode="&#xf8;" horiz-adv-x="1132" d="M31 514q0 176 64.5 307t185 201t284.5 70q131 0 232 -35l104 170h170l-147 -238q172 -135 172 -446q0 -268 -144.5 -419t-404.5 -151q-133 0 -230 33l-98 -160h-174l143 232q-158 131 -157 436zM371 569q0 -96 18 -170l256 414q-45 31 -106 31q-68 0 -138 -19 q-14 -31 -22 -99.5t-8 -156.5zM469 252q45 -39 111 -39q41 0 71.5 7t65.5 24q12 47 20 120.5t8 141.5q0 90 -16 166z" />
<glyph unicode="&#xf9;" horiz-adv-x="1253" d="M-37 866l10 154q29 4 41 8q23 4 161 28.5t231 28.5q23 -51 34 -118v-516q0 -90 5.5 -127t33 -56.5t94.5 -19.5q98 0 191 35v446q0 45 -6 58.5t-33 29.5l-90 49l8 154q166 31 259 47t171 18q23 -51 35 -118v-672q0 -37 6 -51.5t29 -28.5l82 -47l-6 -127q-88 -23 -203 -40 t-213 -21q-8 25 -19 61q-2 16 -10 39h-6q-84 -49 -177 -79t-169 -30q-164 0 -244 97.5t-80 293.5v367q0 45 -7 58.5t-36 29.5zM160 1462v84h369l194 -354h-176z" />
<glyph unicode="&#xfa;" horiz-adv-x="1253" d="M-37 866l10 154q29 4 41 8q23 4 161 28.5t231 28.5q23 -51 34 -118v-516q0 -90 5.5 -127t33 -56.5t94.5 -19.5q98 0 191 35v446q0 45 -6 58.5t-33 29.5l-90 49l8 154q166 31 259 47t171 18q23 -51 35 -118v-672q0 -37 6 -51.5t29 -28.5l82 -47l-6 -127q-88 -23 -203 -40 t-213 -21q-8 25 -19 61q-2 16 -10 39h-6q-84 -49 -177 -79t-169 -30q-164 0 -244 97.5t-80 293.5v367q0 45 -7 58.5t-36 29.5zM440 1192l195 354h368v-84l-385 -270h-178z" />
<glyph unicode="&#xfb;" horiz-adv-x="1253" d="M-37 866l10 154q29 4 41 8q23 4 161 28.5t231 28.5q23 -51 34 -118v-516q0 -90 5.5 -127t33 -56.5t94.5 -19.5q98 0 191 35v446q0 45 -6 58.5t-33 29.5l-90 49l8 154q166 31 259 47t171 18q23 -51 35 -118v-672q0 -37 6 -51.5t29 -28.5l82 -47l-6 -127q-88 -23 -203 -40 t-213 -21q-8 25 -19 61q-2 16 -10 39h-6q-84 -49 -177 -79t-169 -30q-164 0 -244 97.5t-80 293.5v367q0 45 -7 58.5t-36 29.5zM172 1192l256 354h305l256 -354h-170l-240 149l-237 -149h-170z" />
<glyph unicode="&#xfc;" horiz-adv-x="1253" d="M-37 866l10 154q29 4 41 8q23 4 161 28.5t231 28.5q23 -51 34 -118v-516q0 -90 5.5 -127t33 -56.5t94.5 -19.5q98 0 191 35v446q0 45 -6 58.5t-33 29.5l-90 49l8 154q166 31 259 47t171 18q23 -51 35 -118v-672q0 -37 6 -51.5t29 -28.5l82 -47l-6 -127q-88 -23 -203 -40 t-213 -21q-8 25 -19 61q-2 16 -10 39h-6q-84 -49 -177 -79t-169 -30q-164 0 -244 97.5t-80 293.5v367q0 45 -7 58.5t-36 29.5zM158 1493l289 78l69 -256l-289 -78zM643 1493l287 78l69 -256l-286 -78z" />
<glyph unicode="&#xfd;" horiz-adv-x="1099" d="M-61 952l10 119h524l21 -174l-119 -29l168 -514l188 471q4 12 4 19q0 18 -16 24l-96 41l18 162h389l19 -166l-263 -571q-141 -309 -233 -485.5t-186 -317.5q-148 98 -263 254l228 223l-297 783q-23 55 -31 71.5t-31 44.5zM416 1194l195 354h368v-84l-385 -270h-178z" />
<glyph unicode="&#xfe;" horiz-adv-x="1193" d="M-10 1348l10 155q197 35 291 48.5t149 15.5q18 -47 27 -107v-459q125 90 268 91q197 0 307.5 -146.5t110.5 -398.5q0 -285 -150.5 -432.5t-437.5 -147.5q-33 0 -98 4v-112q0 -45 6 -59.5t35 -28.5l121 -68l-8 -143h-615l-10 194l127 35v1421q0 45 -6 59.5t-35 30.5z M467 246q59 -25 149 -25q97 0 156 27q16 51 27.5 124.5t11.5 141.5q0 152 -54.5 238t-150.5 86q-59 0 -139 -35v-557z" />
<glyph unicode="&#xff;" horiz-adv-x="1099" d="M-61 952l10 119h524l21 -174l-119 -29l168 -514l188 471q4 12 4 19q0 18 -16 24l-96 41l18 162h389l19 -166l-263 -571q-141 -309 -233 -485.5t-186 -317.5q-148 98 -263 254l228 223l-297 783q-23 55 -31 71.5t-31 44.5zM133 1495l289 78l69 -256l-289 -78zM618 1495 l287 78l69 -256l-286 -78z" />
<glyph unicode="&#x152;" horiz-adv-x="2070" d="M51 666q0 227 84 394t239.5 257t370.5 90q141 0 236 -27h983q12 -195 12 -419l-151 -11l-144 180l-288 9v-334l413 37v-316l-413 47v-329l319 6l158 180l149 -10q-6 -180 -30 -420h-1041q-109 -29 -223 -29q-340 0 -507 172t-167 523zM432 745q0 -238 86 -364.5 t250 -126.5q117 0 223 59q20 63 33.5 158.5t13.5 187.5q0 227 -85 344t-248 117q-121 0 -226 -43q-23 -39 -35 -128t-12 -204z" />
<glyph unicode="&#x153;" horiz-adv-x="1769" d="M31 514q0 176 64.5 307t185 201t284.5 70q225 0 359 -105q137 104 325 105q231 0 355.5 -147.5t117.5 -420.5l-620 -114q25 -86 78 -126t139 -40q59 0 141 17.5t166 47.5l49 -203q-76 -57 -197.5 -94t-244.5 -37q-203 0 -328 107q-143 -109 -358 -109q-260 0 -388 133.5 t-128 407.5zM371 569q0 -172 54 -264t155 -92q41 0 71.5 7t65.5 24q12 47 20 120.5t8 141.5q0 166 -52 252t-154 86q-68 0 -138 -19q-14 -31 -22 -99.5t-8 -156.5zM1081 612l305 84q-4 68 -37.5 108t-91.5 42l-34 2q-57 0 -105 -19q-41 -100 -37 -217z" />
<glyph unicode="&#x178;" horiz-adv-x="1378" d="M35 1237l8 143h600l21 -194l-134 -37l215 -365l179 301q8 14 8 29q0 23 -25 33l-119 53l15 180h516l14 -192l-82 -49l-377 -553v-254q0 -49 7.5 -63.5t36.5 -28.5l126 -76l-8 -164h-698l-10 201l176 49v270l-375 600zM314 1806l289 78l69 -256l-289 -78zM799 1806l287 78 l69 -256l-286 -78z" />
<glyph unicode="&#x2c6;" horiz-adv-x="1167" d="M174 1194l256 354h305l256 -354h-170l-240 149l-237 -149h-170z" />
<glyph unicode="&#x2dc;" horiz-adv-x="1167" d="M205 1241q33 145 87 213t138 68q41 0 85 -11.5t106 -33.5q10 -4 61 -20.5t90 -16.5q10 6 24.5 22.5t35.5 40.5h112q-33 -145 -87 -212.5t-138 -67.5q-63 0 -190 45q-41 14 -82 25.5t-68 11.5q-12 -6 -27.5 -21.5t-33.5 -42.5h-113z" />
<glyph unicode="&#x2000;" horiz-adv-x="969" />
<glyph unicode="&#x2001;" horiz-adv-x="1939" />
<glyph unicode="&#x2002;" horiz-adv-x="969" />
<glyph unicode="&#x2003;" horiz-adv-x="1939" />
<glyph unicode="&#x2004;" horiz-adv-x="646" />
<glyph unicode="&#x2005;" horiz-adv-x="484" />
<glyph unicode="&#x2006;" horiz-adv-x="323" />
<glyph unicode="&#x2007;" horiz-adv-x="323" />
<glyph unicode="&#x2008;" horiz-adv-x="242" />
<glyph unicode="&#x2009;" horiz-adv-x="387" />
<glyph unicode="&#x200a;" horiz-adv-x="107" />
<glyph unicode="&#x2010;" horiz-adv-x="966" d="M180 492v202l500 68h106v-270h-606z" />
<glyph unicode="&#x2011;" horiz-adv-x="966" d="M180 492v202l500 68h106v-270h-606z" />
<glyph unicode="&#x2012;" horiz-adv-x="966" d="M180 492v202l500 68h106v-270h-606z" />
<glyph unicode="&#x2013;" horiz-adv-x="1585" d="M160 492v213h1265v-213h-1265z" />
<glyph unicode="&#x2014;" horiz-adv-x="2248" d="M221 492v213h1807v-213h-1807z" />
<glyph unicode="&#x2018;" horiz-adv-x="573" d="M72 989q0 100 229 426l162 15q-76 -160 -93.5 -202t-17.5 -67q0 -20 9.5 -36.5t33.5 -39.5l107 -94q-102 -154 -211 -258q-78 57 -115 88q-55 51 -79.5 88t-24.5 80z" />
<glyph unicode="&#x2019;" horiz-adv-x="573" d="M72 1171q98 141 211 259q86 -63 114 -91q55 -47 80 -84.5t25 -80.5q0 -100 -230 -426l-159 -15q75 160 92.5 202t17.5 66q0 18 -10 36t-35 40z" />
<glyph unicode="&#x201a;" horiz-adv-x="573" d="M72 84q104 152 211 258q86 -63 114 -90q55 -47 80 -85t25 -81q0 -100 -230 -426l-159 -14q75 159 92.5 201t17.5 67q0 20 -9 36.5t-36 39.5z" />
<glyph unicode="&#x201c;" horiz-adv-x="972" d="M72 989q0 100 229 426l160 15q-76 -160 -93.5 -202t-17.5 -67q0 -20 9.5 -36.5t33.5 -39.5l80 -71q25 117 227 401l162 15q-76 -160 -93 -202t-17 -67q0 -20 9 -36.5t34 -39.5l106 -94q-113 -162 -211 -258q-78 57 -115 88q-47 43 -70.5 73t-29.5 62q-88 -127 -184 -223 q-56 37 -115 88q-57 49 -80.5 86t-23.5 82z" />
<glyph unicode="&#x201d;" horiz-adv-x="974" d="M72 1171q98 141 211 259q72 -49 114 -91q45 -39 68.5 -69.5t32.5 -63.5q94 131 186 224q78 -57 113 -91q57 -47 81.5 -84.5t24.5 -80.5q0 -100 -229 -426l-162 -15q76 160 93.5 202t17.5 66q0 18 -9.5 36t-33.5 40l-80 70q-25 -115 -228 -399l-159 -15q75 160 92.5 202 t17.5 66q0 18 -10 36t-35 40z" />
<glyph unicode="&#x201e;" horiz-adv-x="972" d="M72 82q100 150 209 258q70 -47 116 -90q45 -39 67.5 -69.5t31.5 -63.5q94 131 186 223q78 -57 113 -90q57 -47 81.5 -85t24.5 -81q0 -100 -229 -426l-160 -14q76 160 93.5 201.5t17.5 66.5q0 20 -10.5 35.5t-34.5 40.5l-80 71q-25 -117 -228 -401l-159 -14 q75 159 92.5 201t17.5 67q0 20 -9 36.5t-36 39.5z" />
<glyph unicode="&#x2022;" horiz-adv-x="782" d="M111 682q0 76 37.5 140.5t102 102.5t140.5 38t140.5 -38t102.5 -102.5t38 -140.5t-38 -140.5t-102.5 -102.5t-140.5 -38t-140.5 38t-102 102.5t-37.5 140.5z" />
<glyph unicode="&#x2026;" horiz-adv-x="1765" d="M98 211l295 78l76 -271l-293 -77zM698 211l295 78l76 -271l-293 -77zM1296 211l295 78l76 -271l-293 -77z" />
<glyph unicode="&#x202f;" horiz-adv-x="387" />
<glyph unicode="&#x2039;" horiz-adv-x="577" d="M41 567l301 441l156 -27l-187 -414l170 -420l-164 -26z" />
<glyph unicode="&#x203a;" horiz-adv-x="577" d="M80 981l158 27l301 -441l-279 -446l-164 26l170 420z" />
<glyph unicode="&#x205f;" horiz-adv-x="484" />
<glyph unicode="&#x20ac;" horiz-adv-x="1298" d="M92 377v108h131q-2 18 -2 60q0 41 2 59h-131v109l146 6q41 201 179 309.5t361 108.5q190 0 393 -45l-86 -301q-111 33 -233.5 49t-228.5 12q-18 -47 -31 -119l276 10l-22 -139h-264v-16q0 -55 6 -103h241l-22 -135l-184 6q57 -121 206 -120q68 0 155 19t177 54l51 -209 q-86 -59 -215 -97t-252 -38q-207 0 -336.5 105.5t-170.5 300.5z" />
<glyph unicode="&#x2122;" horiz-adv-x="1853" d="M113 1163q0 82 6 170l2 47h653l2 -47q6 -88 6 -170l-77 -6l-78 92l-84 8v-411q0 -20 3 -27.5t17 -17.5l64 -39l-4 -82h-353l-6 100l90 27v450l-86 -8l-78 -92zM793 772l49 29l57 403q2 8 2 19q0 10 -5 16t-19 14l-52 29l9 98h303l143 -452l152 452h280l4 -108l-65 -19 l55 -407q4 -18 9 -29.5t26 -40.5l20 -28l-4 -68h-315l-10 94l86 23l-37 327l-131 -448l-179 -17l-155 459l-23 -289v-4q0 -16 17 -24l65 -27l-10 -94h-262z" />
<glyph unicode="&#x25fc;" horiz-adv-x="1075" d="M0 0v1075h1075v-1075h-1075z" />
</font>
</defs>
</svg>
